<?xml version="1.0" encoding="utf-8"?>
<!-- Generator: Adobe Illustrator 24.2.0, SVG Export Plug-In . SVG Version: 6.00 Build 0)  -->
<svg version="1.1" id="Layer_1" xmlns="http://www.w3.org/2000/svg" xmlns:xlink="http://www.w3.org/1999/xlink" x="0px" y="0px"
	 viewBox="0 0 1600 1200" style="enable-background:new 0 0 1600 1200;" xml:space="preserve">
<style type="text/css">
	.st0{fill:#DDDCF8;}
	.st1{fill:#DDDDF8;}
	.st2{fill:#8282ED;}
	.st3{fill:#7F82EA;}
	.st4{fill:#5C5CE5;}
	.st5{fill:#8383ED;}
	.st6{fill:#DCDCF8;}
	.st7{fill:#F1A6BE;}
	.st8{fill:#5E5DE3;}
	.st9{fill:#EEA6C1;}
	.st10{fill:#5F5FE2;}
	.st11{fill:#605EE1;}
	.st12{fill:#DDB7D4;}
	.st13{fill:#F0A6BF;}
	.st14{fill:#7C77D5;}
	.st15{fill:#E3BACF;}
	.st16{fill:#817DC9;}
	.st17{fill:#E9CCDC;}
	.st18{fill:#8D86D2;}
	.st19{fill:#F3EDF4;}
</style>
<path class="st0" d="M299.7,941.5c0.1,7.7,0,15.5,0.3,23.2c0.1,4.1,0.7,8.1,1.7,12c2.3,7.9,13.3,12.9,21.9,10
	c18-6.1,35.9-12.6,53.9-18.9c7-2.5,14-4.8,20.6-7.1c12.1,8.8,23.8,17.2,35.4,25.8c9.1,6.8,18.1,13.8,27.2,20.5c12,8.8,25,6,32.1-6.5
	c1.9-3.4,4-6.7,6.3-9.9c4.2-5.7,10.8-7.8,17.6-8.1c11.4-0.5,23-1.1,33.8,4.1c10.4,5,19.6,10.9,24.6,21.1c3.7,7.5,2,14.5-5,19.8
	c-6.6,5-14.5,6.3-22.5,7.1c-8.6,0.8-17.2,0.9-25.8,1.6c-2.3,0.2-4.5,1-6.5,2.2c-4.1,2.5-4.6,5.9-1,9c6.6,5.9,13.4,11.5,20.3,17.1
	c4.3,3.5,9.1,6.4,13.5,9.8c13.3,10.1,26.5,20.3,39.6,30.5c0.8,0.8,1.5,1.7,2.2,2.6l-231.4,81.6l-30.5-23.1
	c-2.8-2.4-6.8-3.3-10.5-2.4c-12.2,2.3-24.6,4.4-37,4.5c-18.7,0.1-36.7-3.6-52.5-13.7c-2.7-1.9-5.5-3.6-8.5-4.9c-2.3-1-4.9-1.3-7.4-1
	c-8.8,1.4-16.6-2.6-20-10.7c2,0.4,3.9,1,5.8,1.7c5.3,2.3,10.8,1.8,16.1,0.5c4.3-1.1,8.1-3.7,12.3-4.9c8.4-2.3,16.9-4.6,25.5-5.8
	c10.3-1.4,17-7.1,23.4-13.5c0.3-0.3-0.6-1.7-1-2.6c0.6-2.3,1.2-4.5,1.9-6.9c3.3,1.8,7,2.7,8.8,4.9c2.6,3.3,4.8,2.5,8.3,1.9
	c3.2-0.6,6.1-1.9,8.7-3.8c-1.1-0.7-2.6-1.7,0-2.1c4.8-0.7,6.8-4.4,9.7-7.2c1.5-1.5,3.3-3.7,5.1-3.8c2.8-0.3,5.4,0.2,6.2-3.1
	c5.3,0.1,7-5,11.3-6.4c4.6-1.5,7-5.5,10.6-8.1c6.2-4.4,6.5-12.4,4-17.5c-1.6-3.4-5-5.1-8.8-3.9c-3.2,1.1-6.2,2.3-9.2,3.9
	c-9.1,4.4-17.4,11.2-28.9,6.6l-3.9-1.1l-1.7-0.3c4.9-4.8,4.7-10.1,2.1-15.7V941.8L299.7,941.5z"/>
<path class="st1" d="M1174.1,1030.3l36.8,19.7c-2.5,4.1-6.7,5.6-10.4,7.4c-9.2,4.5-8.8,4.4-7.5,13.6c1.8,12.5,3.2,25-1,37.6
	c-4.9,14.9-15.7,23.9-31,28.9c-12.5,4.1-25.5,6-38.7,7.6c-26.7,3.2-53.4,2.6-80.2,2.7c-10.4-4-17.8,2.6-25.8,6.4
	c-6.9,3.3-13.5,7.3-20.6,11.1c-9.2-4.8-18.5-9.6-27.8-14.4c-9.8-5.1-19.5-10.2-29.2-15.3c-7-3.7-14-7.4-21-11.1
	c-7.9-4.3-9.3-9.2-0.6-15.8c3.3-2.6,8.4-3.5,12.9-4.4c5.1-1,10.4-0.9,15.5-1.6c10.5-1.3,20-6.5,26.3-14.4c6-7.5,4-16.4-0.7-23.8
	c-8.8-14-22.7-20.8-40.2-21.1c-6.8-0.2-13.6,0.3-20.2,1.5c-12.8,2.5-21.7,10.2-27.8,20.5c-1.9,3.2-2.1,7.3-3.2,10.9
	c-0.8,2.8-1.9,5.4-3.3,8c-4.9,7.8-12.1,10.4-21.3,6.8c-8.6-3.4-17-7.4-25.1-11.8c-16.2-8.6-32.2-17.6-48.3-26.5
	c-0.7-0.6-1.4-1.3-1.9-2c3.5-4.3,9-6.1,13.7-8.7c19.4-10.4,39-20.4,58.4-30.8c3.7-2,8.3-3.8,7.8-8.8c-0.4-4.3-5.8-7.5-12.1-8.7
	c-6.6-1-13.2-2.5-19.5-4.5c-5.1-1.8-9.9-4.2-14.2-7.3c-9.2-6.6-9.2-15.5-2.3-23.4c9.1-10.9,23.3-17.2,38.2-16.9
	c6.2,0,12.7,0.2,18.6,1.6c13,3.2,21.3,11.4,25.5,23.1c3.5,9.9,12.4,12.7,19.9,11.3c4.2-0.8,8.2-3.1,12-5.1
	c12.5-6.5,24.9-13.1,37.3-19.7c9.2-4.9,18.5-9.8,27.6-14.9c2.8-1.8,6.5-1.8,9.3,0c16.6,9,33.3,17.9,50,26.7
	c14.9,7.9,29.9,15.6,44.8,23.4c1.1,12.2,2.5,24.3,3.3,36.5c0.9,13.7,1.5,27.4,1.6,41.1c0,5.3,1.1,9.9,5,13.9
	c-3.6,3.7-3.3,8.1-3.2,12.6c0.2,1.8,0,3.7-0.6,5.5c-1.4,2.8-3,5.5-4.7,8.2c-5.3-1-3.5,3.8-4.7,5.1l-7.3,2.2l-2-0.2
	c-3.6-2.3-7.6-1.2-11.5-0.7c-0.4,0-0.7,1.5-1,2.4c0.4,1.1,0.5,2.5,1.3,3.3c6.6,6.5,14.4,11.9,23.1,15.8c4,1.9,8.8,1.9,12.8,0
	c3.5-1.6,6.8-3.5,9.8-5.1c1.2-10.1,2.5-12.4,8.5-13.8v26c6-1.4,6.1-1.4,6.1-5.6c0.1-6.5,0.1-13.1,0-19.6c0-3.1,1-4.9,4.8-5.3
	c8.4-0.7,16.7-1.7,25.4-2.7c-0.2,3.2-0.1,6.5,0.2,9.7c0.6,1.5,1.9,2.6,3.6,2.9c1.3,0,2.8-1.6,3.8-2.8c0.5-0.6,0.1-1.9,0.2-2.8
	c0.5-7.2,1-14.3,1.6-21.5c0.2-1.4,0.7-2.8,1.4-4.1c4.5-10.1,3.6-19.4-4.5-27.8c3.9-1.8,2.7-5.2,3.1-8.2
	C1172.1,1045.3,1173.2,1037.8,1174.1,1030.3z"/>
<path class="st2" d="M1104.6,1079.5c-3.9-4-4.9-8.6-5-13.9c-0.2-13.7-0.7-27.4-1.6-41.1c-0.8-12.2-2.1-24.3-3.3-36.5
	c-1.6-8-2.8-16-4.8-23.8c-5.5-22.1-11.6-44-16.8-66.1c-4.6-19.6-4.2-39.6-3-59.6c2.6,0,2.8-1.5,2.7-3.3c0-4.7,0-9.4,0-14.1l4.2-17.1
	c14.1-6.1,19.3-19.4,25.5-32.1c8.2,1.9,16.2,4.2,24.6,1.2c5.6-1.9,11.2-3.6,18.2-0.7c-0.2-4.2,1-6.7,5.7-5.5c1.1,0.3,3-1.6,4.2-2.8
	c2.3-2.2,4.4-4.5,6.3-6.4c4.1,0.7,1.8,5.9,6.3,5.3c6.3,5.4,8.2,13.2,12.1,19.8c2.2,3.7,3,8.1,4.5,12.1c4.4,11.8,2.1,23.2-2.7,34.2
	c-3.6,8.1-5.1,16.4-6,25c-1.2,11.1-3,22.2-4.3,33.4c-0.6,5-0.8,10-1.2,15c-0.8,0.7-2.2,1.5-2.3,2.2c-0.2,6.5-0.1,12.9,0,19.4
	c0,0.5,0.9,1,1.4,1.5c2.1,7.5,5,15,6.1,22.6c1.9,12.1,3,24.2,3.2,36.4c0,10.5-2,20.9-3.1,31.4c-0.5,4.7-1,9.5-1.5,14.2
	c-1,7.5-2.1,14.9-3,22.4c-0.4,3,0.8,6.4-3.1,8.2l-16,1.7l-2.9-0.6c-1.5-1.5-3.4-2.2-3.5-5c-0.8-14.8-2.1-29.5-3.2-44.3l0.2-15.7
	c0-9.8,0.1-19.6,0-29.4c0-1.8,0.7-4.1-2.7-4.1c-0.1-12.8-1.7-25.5-4.9-38c0.6-1.7,1-3.5,1.2-5.3c0.1-10.4,0.2-20.8,0-31.2
	c-0.3-8.1,1.3-16.2,4.5-23.8c3.3-7.5,6.3-15.1,9.2-22.8c0.4-1.1-0.1-2.4-0.3-4.9c-6.5,5.7-11.4,11-13.4,17.8
	c-3,10.3-5.4,20.8-8,31.2c-1.6,6.3-4.6,12.6,0,18.8l-1.9,1.6c-2.6,1-2.9,3-2.8,5.3c0,8.3,0,16.7,0.1,25c0,1,1,1.9,1.5,2.9l8.1,47.7
	c0,13.7,0,27.4,0,41.1c0,7.7,0,15.3-0.2,23c-0.2,1.6-0.7,3.1-1.3,4.5c-0.6,1.4-1.6,2.7-1.7,4.1c-0.2,5.9,0,11.8,0,17.7
	c0,0.4,0,0.8-0.1,1.2c-2.8,0-6.1-1.8-8.1,1.8L1104.6,1079.5z M1151.9,835.8l-0.7-0.9c-0.2,0.2-0.5,0.3-0.5,0.5
	c0.1,0.4,0.2,0.8,0.4,1.2L1151.9,835.8z M1152.5,832l0.4,0.3v-0.4L1152.5,832z"/>
<path class="st3" d="M299.7,941.5l-1.3,0.3c-0.5,0-1.1,0-1.6,0c-0.1,0.9-0.1,1.8-0.1,2.7c-6.4,13.9-12.7,27.8-19,41.7
	c-4.7,10.3-9.3,20.6-14.3,30.8c-1.7,3.5-3.2,6.8-1.8,10.6c-1.1,0.7-2.6,1.3-3.3,2.3c-8.2,10.9-12,23.5-17,35.7
	c-1.7,4.2-3.3,8.4-5,12.6c-3.2,1.4-6.3,3.1-9.5,4.3c-7.1,2.5-14,0-21-1.1c-3.5-0.5-7-1.2-10.5-1.9c0.4-3.8,0.9-7.7,1.3-11.5
	c0.7-1,1.3-2.1,1.7-3.2c1.2-7.1,2.2-14.1,3.2-21.2c0.6-4,1-8,1.5-12c1.1-4.1,2.1-8.2,3.2-12.3c2.7-10.1,5.2-20.2,8.3-30.2
	c0.9-2.9,3.1-5.4,4.7-8.1c1.5-2.2,3.1-4.3,4.5-6.5c5.8-9.5,11.5-19,17.2-28.6c6.9-11.3,8.4-23.9,10.2-36.4c0.9-4.8,2.5-9.6,2.7-14.5
	c0.4-9.9,0-19.8,0.2-29.7c0.2-6.9-4.1-12.1-7-17.8c-0.3-0.5-1.3-0.8-3.2-1.9c0.4,1.6,1,3.2,1.6,4.7c3,5.1,4.3,10.9,3.8,16.6
	c-0.7,9.1-1.3,18.1-2,27.2c-4.6-10.8-9.2-21.6-13.7-32.4c-3.2-7.8-6.1-15.6-8.9-23.5c-3.2-8.9-4.9-18-3.6-27.4l4.4-3.7l4.8,2.3
	c4.7-0.7,6.5,2,7.1,6.1c5.8-2.1,8.5,2.2,12.2,4.1c6.4,3.3,13.5,4.6,20.5,5.7c5.4,0.9,10.8,1.4,16.3,1.6c3,0.1,6.1-1,9.2-1.3
	c6.7-0.6,13.5-1,20.2-1.5c0.8-0.1,1.8-0.1,2.2-0.5c2.7-3.2,7-2.5,10.5-3.8c0,6-0.1,11.9,0.1,17.9c0.2,1.8,0.6,3.5,1.2,5.3
	c-2.2,12.9-3.2,26.1-6.8,38.7c-4.1,14.2-10.6,27.9-16.1,41.7C304.4,929.4,302.1,935.5,299.7,941.5z"/>
<path class="st4" d="M1126.8,280.9c0.5,3.8,0.9,7.5,1.6,11.2c1.6,8.3-1.6,15.3-6.8,21.8l-2.3,2.9c-10.3-2.8-19.8-7-27.5-14.1
	c3-4,4.5-7.8,1.1-12.5c-6-8.1-11.3-16.6-17-24.9c-1.2-1.4-2.4-2.8-3.8-4c-1.7,10.4-3.2,19.5-4.8,29.7c-4-1.9-7.6-3.7-11.3-5.4
	c-3.9-1.8-7.8-3.6-11.7-5.4c-0.7-0.9-1.6-1.6-2.5-2.3c-4.2-2.2-9.2-3.7-12.6-6.6c-8.1-6.9-18.9-9.5-27.7-15.4
	c-7.2-4.8-15.7-8.4-23.6-12.6c-0.4-3.5-0.9-7.1-1.2-10.6c-0.7-8-1.2-16.1-1.8-24.2l1.1-5.8c0.1-1.5,0.3-3,0.4-4.4
	c0.9-2.2,1.7-4.4,2.8-6.5c1.7-3.5,3.7-6.8,6-10c6.3-8.2,15.7-12.2,26-14.8c1.6,3.7,4.1,7.3,4.7,11.1c0.7,4.8,4.6,6.1,8,6.7
	c10.5,1.9,27.8-2.4,31.6-14.4c3.2,1,6.5,1.8,9.6,3c9.1,3.7,18,7.8,24,15.4c4.6,5.7,8.3,12,12.4,18c0.2,0.5,0.3,1,0.5,1.5
	c4.2,10.8,8.6,21.5,12.6,32.3c3.3,9,6.1,18.1,9.1,27.1c0.2,1,0.5,2,0.7,3l0.9,2.9c0.3,1.5,0.5,3.1,0.8,4.6L1126.8,280.9z"/>
<path class="st5" d="M1077.4,585.9l0.3,2.9l-5,0.2l0,0c-0.5-3.4-0.5-3.4-3-1.7l-1.6,0.1c0.2-3.5-2.6-2.8-4.8-2.8l0,0l-1.7-1.4l0,0
	l-4.7-1.6l0,0l-1.7-1.4h-0.1c-0.7-1-1.2-2.8-2-2.9c-4.9-0.8-8.5-3.5-12.1-6.3c-0.5-12-0.9-24-1.6-36c-0.4-4-1.2-8.1-2.4-12
	c-4-15.3-8.3-30.6-12.3-45.9c-1.5-5.7-2.6-11.5-3.9-17.2c-0.1-3.1,0-6.3-0.3-9.4c-0.8-7.1-1-7.2,6-10.3c4.9-2.2,8.1-5.4,8.5-10.3
	c0.3-3.7-0.2-7.5-0.4-11.2c0.1-1.7,0.2-3.4,0.3-5c0.1-7.2-3.8-10.8-11.1-13.9c-7.1-3-14.3-2.2-21.5-2.6c-9.6-0.5-17.3-3.8-21.5-12.2
	c-0.8-1.4-1.7-2.7-2.7-4c4.7-8.2,11.2-14.7,20.7-18.5c2.6,3.9,6.9,5.2,11.2,5.3c12.8,0.3,25.7,0.1,38.5,0c0.6,0,1.2-0.7,1.8-1.1
	l13.1,10l0,0c1,6.7,2.3,13.4,2.8,20.2c0.3,4.4,3,6.8,6.6,8.9c0.5,0,1,0.1,1.5,0.1c1.2,2.7,3.5,3,6.2,2.8c-1.1,17.7-2,35.4-3.4,53.1
	c-1,11.9-2.8,23.8-4.1,35.7c-1.2,11.7-0.2,23.5,3.1,34.8c3.9,13.8,5.4,27.8,2.7,42c-0.9,0.4-2.5,0.7-2.4,1.1
	C1076.7,579,1077.1,582.4,1077.4,585.9z"/>
<path class="st6" d="M455,760.1c-3.6,9.2,1,19.3,10.5,23.6c8.3,4,16.9,7.4,25.4,11.2c3.8,1.7,7.1,3.9,7.1,8.6c0,2.9-0.8,5.2-3.3,6.9
	c-3.1,2.1-6.4,4.1-9.8,5.9c-19.1,9.8-38.3,19.5-57.4,29.3c-3.7,1.9-6.7,1.6-10.2-0.3c-12.7-7-25.6-13.8-38.4-20.7
	c-12.4-6.6-24.8-13.2-37.2-19.7c-2.9-1.5-6-2.8-8.9-4.2v-28.1c4.2,8.2,7.6,16.2,15,22.2c4.1,3.3,8.3,4.5,12.9,2
	c5.6-3,10.9-6.4,15.8-10.3c7.4-6.1,14.1-12.8,21.2-19.2c1-0.7,2.2-1.3,3.4-1.7c5.5,3.2,11,6.4,16.7,9.4c1.5,0.7,3.3,0.7,4.8,0.1
	c6.8-3.4,13.2-7.3,20.1-10.4C446.6,762.7,450.1,759.5,455,760.1z"/>
<path class="st7" d="M1098.1,556.8c-0.5-7.4,5.9-10.6,10.9-14c14.1-9.5,28.8-7.3,43.5-0.6c20.6,9.3,26.2,32,18.3,48.7
	c-2.9,6.2-8.2,11.6-13.1,18.3c1,3.1,2.5,7.6,3.9,12.1c0.5,1.7,1,3.5,1.5,5.3c0.5,3.8,1.6,7.6,1.4,11.4c-0.6,8.8-1.8,17.6-2.9,26.4
	c-1.5,11.9-2.9,23.7-5,35.5c-1.1,6.3-2.7,12.8-5.8,18.4c-3.7,6.8-9.5,12.5-19.6,14.3c0.8-5.5,1.1-10.5,2.3-15.2
	c4.1-16.2,9.1-32.3,12.7-48.7c2.7-11.9,3.8-24,5.7-36.1c0-1.4-0.1-2.7-0.1-4.1c-0.6-3.9-1.3-7.8-2-12.1l-4,1.6
	c-4.8,1.8-10,0.9-13.2-2.7c-3.8-4.2-7.4-8.6-10.6-13.2c-3.2-4.9-5.5-10.2-8.4-15.2c-1.2-2.1-3.2-4.6-6.1-3.3c-2,0.9-3.4,3.3-4.4,5.3
	c-0.8,1.7-0.6,3.8-0.9,5.7l-2.1,0.1c-0.7-2.6-1.7-5.2-1.9-7.9c-0.3-5.5-0.1-11.1-0.1-16.6C1098.2,565.6,1098.1,561.2,1098.1,556.8z"
	/>
<path class="st6" d="M1031.8,790.9c-0.1,4.3-3.8,6.1-7,8c-8.1,4.7-16.6,9-24.7,13.6c-13.9,7.9-27.7,16.1-41.6,24.1
	c-3.2,1.8-6.3,3-10.2,0.8c-21.8-12-43.7-24-65.7-35.8c-4.4-2.3-7.1-4.9-6-9.7c1.4-4.8,6-8.2,11.4-8.5c8-0.5,15.9-1.9,23.6-4.2
	c8.6-2.5,14.6-7,17.4-15c0.2-0.5,1.2-0.8,1.8-1.3c7.9,3.2,15.9,6,23.5,9.5c15.2,6.9,30.5,13.9,45.3,21.5c5.9,3,10,2,14.9-1.4
	c3.6-2.5,8.1-4.1,12.2-6.1L1031.8,790.9z"/>
<path class="st8" d="M297.4,442.1c-9.8-5.4-19.7-10.7-29.5-16.1c-19.5-10.6-38.9-21.1-58.4-31.7v-17.4c5.9,3,11.1,5.5,16.2,8.2
	c14.4,7.7,28.7,15.5,43.1,23.2c16.2,8.7,32.4,17.3,48.6,25.9c18.3,9.6,36.7,19.2,54.9,28.8c14.2,7.5,28.5,15,42.4,22.9
	c4.4,2.5,7.8,2.7,12.1,0.4c16.9-8.6,34-17,50.9-25.6c6.3-3.2,12.3-6.9,18.9-10.6V464c-3,6.4-9.2,9.7-15.4,12.9
	c-18.9,9.8-37.9,19.4-56.9,29.1c-0.7,0.4-1.4,0.6-3,1.3l-21.6-11.7l-33.4-17c1,16.8-2.2,32.4-7.4,47.7l-0.1-7.2l1-7.5
	c-0.1-0.3-0.1-0.7,0-1c0-0.6,0.1-1.2,0.1-1.8c-0.4-9.1-1.1-18.2-1.2-27.3c-0.1-5.6-2-9.7-8-11.7L297.4,442.1z"/>
<path class="st1" d="M570.8,696.4c-0.2,2.7,1.9,3.6,4.1,4.7c17.7,8.7,35.3,17.5,52.9,26.4c3.8,1.9,7.4,4.1,11.8,6.6
	c-2,1.4-3.3,2.4-4.8,3.2c-17.2,9.4-34.4,19-51.9,28.1c-6.4,3.2-13.1,5.8-20.2,7.6c-7.9,2.1-19-3.6-22.4-10.7c-1.1-2.2-2-4.4-2.7-6.7
	c-3.1-10.9-12-15.7-22.8-18.5c-4-1-8.2-1.1-12.3-1.7c1.2-1.4,2-3.3,3.5-4.1c8.5-4.8,17-9.4,25.7-13.9c6.6-3.4,13.6-6.2,20.2-9.8
	S564.5,700.2,570.8,696.4z"/>
<path class="st6" d="M862.8,730.6c-7.8,6-14.9,12.1-16.9,22.3c-1.4,7.1-5.7,13.8-15.4,15.4c-5.8,1-10.8-0.7-15.6-3
	c-6.9-3.3-13.4-7.3-20.1-10.9c-13.8-7.5-27.8-14.8-41.7-22.4c-5.4-2.9-10.6-5.9-16.9-9.5c2.6-2.1,5.4-4,8.2-5.7
	c11-5.9,22.1-11.6,33.2-17.5c2.4-1.3,4.6-2.9,6.9-4.4c10.2,4.8,20.4,9.7,30.6,14.3C831,716.5,847,723.5,862.8,730.6z"/>
<path class="st4" d="M252.5,610.6l-11.2-21.8c3-6.1,0.8-12.6,1.6-18.8c2.4-4.1,4.4-8.5,7.4-12.2c4.4-5.3,9.6-9.9,17.8-9.7
	c8,0,16,0.1,24,0c1.6,0,3.1-0.9,4.7-1.4l10.7-1.7c2.3,0,5,1.7,6.8-1.1l-0.4-1.4h0.4c7.1,3.4,6.5,10.1,7.9,15.9l-1.6,1.5l-1.5,4.4
	l-4.8,4c-5.8,2.5-7.1,4.3-5.9,9.2c0.5,2.1,1.9,4.1,2.1,6.1c0.2,2.5,0.4,5.7-1.1,7.3c-2.7,2.9-3.1,6-2.8,9.4
	c0.3,4.3,1.1,8.5,1.4,12.8c0.3,4.3,2.9,5.8,6.1,6c2.3-4.6,4.4-8.8,6.5-12.9c0.4,1.7,1.8,4.2,1.1,5c-3.3,3.3-2.9,6,0.1,9.2
	c1,1,0.5,3.1,0.7,4.8c-4,4.7-5.4,5-13,2.9c-1.7-1.3-3.4-2.5-5.1-3.8c-0.9-5.2-1.6-10.5-2.8-15.6c-0.4-2-1.6-3.8-3.3-5
	c-0.8-0.5-3.8,1.2-5,2.5c-3.1,3.3-5.5,7.1-8.5,10.4c-7.2,7.8-9,10.9-21.3,7.3l-3.8-2.5c-0.3-0.1-0.7-0.2-1-0.3l-5-8.6l0,0
	L252.5,610.6z"/>
<path class="st8" d="M301.9,1067.6c11.5,4.7,19.9-2.2,28.9-6.6c2.9-1.5,6-2.8,9.2-3.9c3.8-1.2,7.2,0.5,8.8,3.9
	c2.5,5.1,2.2,13.1-4,17.5c-3.6,2.6-6,6.6-10.6,8.1c-4.3,1.4-6,6.5-11.3,6.4c-0.8,3.3-3.4,2.8-6.2,3.1c-1.8,0.2-3.5,2.3-5.1,3.8
	c-2.9,2.8-4.8,6.5-9.7,7.2c-2.6,0.4-1.1,1.4,0,2.1c-2.5,1.9-5.5,3.2-8.7,3.8c-3.5,0.6-5.7,1.4-8.3-1.9c-1.8-2.2-5.4-3.2-8.8-5
	c-0.6,2.3-1.2,4.6-1.9,6.9c-6,5.2-13.7,7.6-21.2,10.1c-12.7,4.1-26.3,5.6-38.5,11.4c-4.7,2.4-10.4,2.4-15.1,0.1
	c-2.6-1.6-5-3.3-7.3-5.1c-0.4-0.3-0.9-0.4-1.4-0.5c-0.1-0.5-0.1-1,0.1-1.4c2.2-5.2,2.2-10.9,0-16c0.2-1,0.4-1.9,0.6-2.9
	c0.2-1,0.5-1.9,0.7-2.8c0.9-1.5,1.8-3.1,3.2-5.5c3.2,3.5,5.5,6.3,8.1,8.9c5.5,5.7,9.3,5.9,15.1,0.6c3.5-3.2,6.7-6.6,10.1-9.9h43.5
	c-0.2-7.2-0.4-13.6-0.6-19.9c2.7,0.6,5.4,1,8,1.8c2.9,0.9,5.6,2.3,8.5,3.2c3.3,0.9,6.6,1.1,8.7-2.3c3.6,0.1,2.9-2.3,3.2-4.4
	C300.5,1074.6,297.9,1070.6,301.9,1067.6z"/>
<path class="st9" d="M570.8,696.4c-6.3,3.8-12.4,7.7-18.9,11.2c-6.5,3.5-13.5,6.4-20.1,9.8c-8.7,4.5-17.3,9.1-25.7,13.9
	c-1.5,0.9-2.4,2.7-3.5,4.1c-3.2,0.8-6.6,1.2-9.5,2.6c-6.9,3.3-13.6,7-20.3,10.6c-5.1,2.7-10.2,5.5-15.2,8.4
	c-1.1,0.7-1.7,2.1-2.6,3.1c-4.9-0.6-8.4,2.6-12.3,4.4c-6.9,3.1-13.3,7.1-20.1,10.4c-1.5,0.6-3.3,0.6-4.8-0.1
	c-5.7-2.9-11.1-6.2-16.7-9.4c-1.6-1.7-2.8-3.9-4.8-4.9c-7.2-3.7-14.7-6.9-22-10.6c-1.5-0.8-2.5-2.2-2.9-3.7
	c-0.8-3.9-1.1-7.9-1.6-11.9c5.2,2.5,10.5,4.8,15.6,7.5c10.9,5.8,21.7,11.8,32.7,17.6c1.6,0.6,3.4,0.5,5-0.2c8-4,15.8-8.2,23.7-12.4
	c12-6.3,23.9-12.7,36-18.8c11.6-5.8,22.5-12.8,34.6-17.9c9.3-3.9,17.5-9.7,26.4-14.5c6.1-3.3,12.6-5.9,18.7-9.2
	c7.6-4,14.9-8.5,22.5-12.6c11.3-6.2,22.6-12.3,34-18.3c4.8-2.5,9.8-4.7,15.6-7.5v12.8c-3,2.5-5.7,5.6-9.2,7.4
	C607.2,677.8,588.9,687.1,570.8,696.4z"/>
<path class="st10" d="M862.8,730.6c-15.9-7.1-31.8-14.1-47.6-21.3c-10.3-4.7-20.4-9.5-30.6-14.3c-1-1-2.7-2-2.8-3.1
	c-0.7-4.6-0.8-9.4-1.4-14c-0.4-3.1,1.3-4.3,4.2-4.8l1.8,2.9c1.9,0.8,3.9,1.5,5.7,2.3c21.2,9.9,42.5,19.6,63.4,29.9
	c12.9,6.3,25.4,2.8,27.8-13c0.5-4.3,1.6-8.5,3.3-12.5c4.7-9.7,13.3-15.7,23.7-20.1c13.2-5.5,26.5-5.2,39.9-1.8
	c14.7,3.8,25.6,11.8,30.8,25.5c0,3.4,0.2,6.7-0.1,10.1c-0.1,1-1.6,1.9-2.4,2.8c-3.9-4.1-7.1-9.5-12-12.2c-19.5-10.9-40-14-60.5-2.4
	c-9.4,5.3-17.5,12-18.9,23.4c-0.6,5.3-3.1,10.5-4.7,15.7C877.2,729.2,871,732.1,862.8,730.6z"/>
<path class="st5" d="M322.1,558.4c-1.4-5.8-0.8-12.5-7.9-15.9c-1-2.8-2-5.7-3-8.5c-4.8,1.9-8.1-0.6-11.4-3.2
	c0.9-7.9,1.8-15.7,2.7-23.6c0.3-1.7,0.5-3.3,0.5-5c-0.8-9.3-1.8-18.6-2.7-27.9c-0.6-6.5-1.3-12.9-1.9-19.4
	c-0.4-4.3-0.7-8.6-1.1-12.8l53.3,27.8c-2.1,8.6-4.2,17.2-6.3,25.7c-2.7,10.7-6.4,21.2-7.8,32c-1.7,13.1-1.3,26.3-1.9,39.5
	c-1.8-0.7-3.5-1.6-5.2-2.6C326.9,562.6,324.6,560.4,322.1,558.4z"/>
<path class="st11" d="M638.6,377.1v17.4c-17.7,9.4-35.1,18.7-52.5,28c-7.7,4.1-15.2,8.4-24.3,9.8c-10.9,1.7-19.9-2.9-23.3-12.4
	c-6.1-16.9-16.5-23.8-36-24.4c-8.7-0.2-17.3,0.9-25.6,3.2c-9.4,2.6-16.4,8.3-21.6,15.9c-3-1.8-3.6-4.7-3-7.6
	c2.2-11.5,8.4-20.2,20.7-24.8c12.1-4.5,24.2-7,37.3-4.2c13.7,2.9,24.3,8.3,27.6,22c0.5,1.8,1.2,3.6,2.1,5.4c1.3,3,3.6,4.7,6.9,6.4
	c9.5,4.9,18.6,2.8,27-1.2c12.2-5.8,23.8-12.7,35.7-19C619,386.7,628.9,382,638.6,377.1z"/>
<path class="st2" d="M974.7,545.4v-13.1c0-7.8,0-15.6,0-23.5c0-3.1-0.2-6.1-2.9-8.4c-0.2-6.8,0-13.5-0.6-20.3
	c-0.2-2.6-1.9-5.1-2.9-7.7c1.4-0.5,2.7-1,4-1.7c10.7-6.2,21.3-12.5,32-18.7c1.8-1,3.9-1.7,6.5-2.9c0.2,1.5,0.2,3,0.2,4.6
	c-1,10.9-2.4,21.8-3,32.7c-0.9,13.6-0.2,27.3,2,40.9c0.6,3.6,1.7,7.2,2.6,10.8c0,6.2,0,12.5,0,18.7c-4.8,0.3-8.2-2.3-11.9-4.4
	c-4.1-2.3-8.1-3.7-12.8-1.2c-1.6,0.9-4.1,0.3-6.9,0.5l-1.6,6.6l-1.6,1.5c-3.6,0.1-4.2-2.8-2.8-4.2c2.3-2.5,2.3-3.8-0.1-6
	C974.1,548.8,974.7,546.8,974.7,545.4z"/>
<path class="st6" d="M882.4,723.6c1.6-5.2,4-10.4,4.7-15.7c1.4-11.4,9.5-18.1,18.9-23.4c20.5-11.6,41.1-8.4,60.5,2.4
	c4.9,2.7,8,8.1,12,12.2c-1.1,2.1-1.7,4.5-3.3,6.2c-8.1,8.9-18.8,13.2-31.2,14.3c-10.4,1-20.9,2.1-25.7,12.8c-0.1,0.2-1,0.2-1.5,0.3
	c-1-0.2-2.3,0-3-0.5C904.4,725.6,893.6,724.3,882.4,723.6z"/>
<path class="st11" d="M930.5,385.4c-10.9-13-24.8-20.8-43.1-20.2c-16,0.6-35.3,10.5-38.4,27c-0.7,3.1-1.9,6-3.6,8.7
	c-4.7,8.4-17,10.9-27.3,5.5c-9.8-5.1-19.6-10.2-29.3-15.4c-15.2-8.2-30.5-16.7-46-24.6c-4.4-2.2-6-4.8-5.6-9.1c0.3-3.1,0-6.3,0-9.4
	c1.3,0.1,2.8-0.2,3.8,0.4c5.9,2.9,11.8,5.8,17.5,9c14.8,8.2,29.3,17.1,44.4,24.7c7.5,3.8,14.3,8.8,23.5,10
	c10.5,1.3,18.8-2.6,21.6-11.9c3.1-10.6,7.6-20.3,19-25.6c8.4-4,17.3-7.3,26.9-5.8c12.5,2,24,7.3,33.1,15.4c0.6,1.1,1.1,2.1,1.7,3.2
	c2.5,5,6.1,9.7,4.8,15.8C933.1,384.7,932.5,385.6,930.5,385.4z"/>
<path class="st11" d="M1012.6,538.2c-0.9-3.6-1.9-7.2-2.6-10.8c-2.2-13.5-2.9-27.2-2-40.9c0.6-10.9,2-21.8,3-32.7
	c0-1.5-0.1-3-0.2-4.6c-2.6,1.2-4.7,1.9-6.5,2.9c-10.7,6.2-21.3,12.5-32,18.7c-1.3,0.7-2.7,1.2-4,1.7l-13.1,7.8c-6-3.3-12-6.5-18-9.7
	c-16.2-8.7-32.5-17.5-48.8-26c-7.2-3.8-12-8.5-10.3-16.8c0.2-1.5,0.2-2.9,0-4.4c1.6,0.4,3.2,0.9,4.7,1.5c5.2,2.4,10.4,4.9,15.6,7.4
	c5.8,5.5,13.1,8.7,20.6,11.6c8.2,6,17.2,10.9,26.9,14.5c1.5,4,6.9,2.5,9.3,5.4c0.2,0.3,2-0.3,2.8-0.8c4.8-2.7,9.6-5.6,14.4-8.4
	c17-9.6,34.1-19,50.9-28.9c3-1.8,7.5-2.6,8.4-6.7l2.9-0.3c0.2,3.8,0.7,7.5,0.4,11.2c-0.4,4.9-3.6,8.2-8.5,10.3
	c-7,3.1-6.8,3.2-6,10.3c0.3,3.1,0.2,6.2,0.3,9.4c-1.6,9.5-3.5,18.9-4.7,28.4c-1.4,11.2-2.3,22.4-3.4,33.6
	C1012.7,527.4,1012.7,532.8,1012.6,538.2z"/>
<path class="st8" d="M1071.7,122.7l-0.4,3c-5.6,9.7-12.4,18.4-22,25l-3.2-0.6c-4.2-7-4-8,2.1-13.7c1.4-1.1,2.7-2.2,3.9-3.5
	c1.1-1.3,1.7-2.8,1.7-4.5c-0.3-1.6-1.3-2.9-2.7-3.8c-0.6-0.4-2.8,0.6-3.7,1.5c-1.8,1.7-3.2,3.8-4.8,5.6c-2.2,2.4-4.6,4.3-9.5,3.4
	l8.4-18.1c-15.5,0.2-29.5-1.7-41.3-10.7c-1.1-1.3-2.1-2.7-3.2-4c-5.3-7.5-4.8-12.9,1.8-19.8l3-0.9l1.7-1c2.3-0.1,4.6-0.1,6.9-0.2
	c4.9-0.2,9.9,0.1,14.7-0.6c15.4-2.3,35.6,5.3,43.7,17.5c2.3,3.5,3.3,8,4.1,12.2c0.6,3.2,0,6.7,0,10.1L1071.7,122.7z"/>
<path class="st12" d="M638.6,377.1c-9.7,4.9-19.5,9.6-29.2,14.6c-12,6.3-23.5,13.2-35.7,19c-8.4,3.9-17.5,6.1-27,1.2
	c-3.2-1.7-5.5-3.4-6.9-6.4c-0.9-1.7-1.6-3.5-2.1-5.4c-3.2-13.7-13.9-19.1-27.6-22c-13.1-2.8-25.2-0.3-37.3,4.2
	c-12.3,4.6-18.4,13.3-20.7,24.8c-0.6,2.8,0,5.7,3,7.6c-0.9,5.1,3.5,7.6,7,9.5c6,3.2,12.7,5.2,19,8c4,1.7,7.7,3.8,11.4,6
	c3.9,2.4,6,5.8,5.4,10.4c-0.7,5.1-0.9,10.3-1.4,15.4v-13.8c-6.6,3.7-12.6,7.4-18.9,10.6c-16.9,8.6-34,17-50.9,25.6
	c-4.4,2.2-7.8,2-12.1-0.4c-13.9-7.9-28.2-15.4-42.4-22.9c-18.3-9.7-36.6-19.2-54.9-28.8c-16.2-8.6-32.5-17.2-48.6-25.9
	c-14.4-7.7-28.7-15.5-43.1-23.2c-5.1-2.7-10.3-5.2-16.2-8.2v17.4c-3.1-5.7-0.9-11.7-1.2-17.5c0-0.9,1.9-2.1,3.1-2.8
	c7.9-4.4,15.9-8.8,24-13.1c12.4-6.7,24.9-13.4,37.3-20.1c2.2-1.1,4.5-2.1,6.7-3.2l1.6-2.8c3.1-0.9,6.5-1.6,9.3-2.9
	c4.6-2.2,8.9-4.8,13.3-7.3l2.6-1.3l3.3-1.6c3.1-1.7,6.4-3.2,9.3-5.1c1.3-0.8,2.1-2.3,3.2-3.5l1.7-0.1c1.3-0.2,2.5-0.5,3.7-1
	c14.2-7.6,28.3-15.4,42.5-22.9c6-3.1,11.2-7.7,18.6-8.1l0.2,0.2c-0.2,0.7-0.2,1.7-0.6,2c-10.9,6.1-21.8,12.2-32.9,18
	c-8.1,4.3-16.6,8.1-24.7,12.4c-20.7,11-41.3,22.3-62.1,33.4c-15.6,8.3-31.3,16.3-46.9,24.5c-2.4,1.4-4.8,3-7,4.7
	c15.6,8.2,30.8,16.1,45.9,24c13.1,6.9,26.2,13.9,39.3,20.9c15.7,8.4,31.5,16.9,47.2,25.3c12.2,6.5,24.4,13,36.6,19.4
	c10.8,5.8,21.6,11.6,32.7,17.1c2.5,1.2,5.4,1.5,8.1,0.9c4.8-1.6,9.4-4.1,13.9-6.4c6.5-3.4,12.9-7.1,19.5-10.4
	c11.9-6,23.8-11.8,34.7-17.2c2.5-6.2-0.6-9.2-4.5-11.5c-2.4-1.4-5.2-2.2-7.8-3.3c-6.8-2.9-13.8-5.6-20.4-9c-8-4.1-10.4-11.6-10.2-19
	c0.3-15.8,12.5-24.7,26.5-29.4c11.9-4,25.4-5.6,38.5-1.8c12.6,3.6,22.6,9.9,26.4,22.3c0.4,1.1,0.9,2.2,1.4,3.3
	c4.3,9.3,11.2,11.7,21.9,9.3c13-3,23.1-11,34.6-16.5c11.5-5.5,22.3-12,34-18.4c-17.6-8.9-34.4-17.4-51.3-26
	c-8.9-4.5-18.2-8.4-26.4-13.8c-10.4-6.7-10.2-12.2,0.4-18.7c0.2-0.1,0.5-0.2,0.7-0.3c5.3-3.2,11.7-4.6,18-3.9l4.7-1.5l17.5-4.4
	l3.4,0.1c-3.5,4.1-8.8,4.6-13.8,5.7c-9,2-18,3.9-27,5.8c-4.2,0.6-7.5,3.6-8.4,7.4c2.9,5,6,7.5,12.3,9.9c2.6,1.9,5.4,3.7,8.2,5.2
	c14.7,7.2,29.5,14.1,44.2,21.3c7.7,3.8,15.3,7.9,22.8,11.9C638.4,374.9,638.4,376.3,638.6,377.1z"/>
<path class="st13" d="M320.5,156.2c-1.2-0.4-2.5-0.7-3.7-0.9c-4.1-0.6-9.2,0-11.2-3.8c-2.6-4.9-5-10.2-5.4-15.5
	c-0.7-8.5,0.3-17.2,0.6-26.7c-1.1-0.7-2.2-1.5-3.2-2.4c-5.3-4.9-5.3-9.4-0.2-14.3c1.9-1.7,3.7-3.4,5.4-5.3
	c8.7-10.5,14.9-10.5,22.8,0.4c11-1.5,22.1-2,32.8,2c5.2,1.9,9.9,4.3,11.3,9.9c0.5,3.1-1.2,4.7-4.2,5.7c-1.3,0.5-2.6,1-3.9,1.6
	c-7,0.4-13.1,2.4-18.1,7.3c-5.5,5.3-9.9,10.9-12.3,18c-2.2,6.4-4.9,6.8-9.7,1.7c-2-2.2-4.1-2.6-7.2-1.3c-0.7,4.9-1.1,10,4.9,12.2
	c5.5,2.1,6.6,5.5,5.7,10.2c-0.5,0.5-0.9,1-1.4,1.5l0,0L320.5,156.2z"/>
<path class="st10" d="M1026.7,786.6c-4.1,2-8.5,3.6-12.2,6.1c-4.9,3.3-9,4.3-14.9,1.4c-14.9-7.5-30.1-14.5-45.3-21.5
	c-7.7-3.5-15.7-6.4-23.5-9.5c-3.2-3.4-9.2-4.3-10.1-9.8c0.1-3.6-0.1-7.2,0.3-10.8c0.1-0.9,1.8-1.7,2.8-2.5l82.1,37.5
	c3.2-1.9,6.5-3.9,9.8-5.8l44.4-26l3.7,0.4v13.2c0.9,4.7-2.4,7.2-6,9.3c-9,5.3-18.1,10.5-27.2,15.7c-0.6-0.3-1.6-0.9-1.7-0.8
	C1028,784.3,1027.3,785.4,1026.7,786.6z"/>
<path class="st5" d="M358.9,526.4c5.2-15.3,8.4-30.9,7.4-47.7l33.4,17c-0.5,0.8-1.4,1.5-1.5,2.3c-1.2,13.9-2.2,27.9-3.3,41.8
	c-0.7,0.7-1.2,1.7-2,2.1c-10.8,5.6-21.7,11-32.6,16.5C358,547.8,358.2,537.1,358.9,526.4z"/>
<path class="st14" d="M369.7,734.3c0.5,4,0.8,8,1.6,11.9c0.4,1.6,1.5,2.9,2.9,3.7c7.3,3.6,14.8,6.9,22,10.6c2,1,3.2,3.3,4.8,4.9
	c-1.2,0.4-2.3,1-3.4,1.7c-7.1,6.4-13.8,13.1-21.2,19.2c-4.9,3.9-10.2,7.4-15.9,10.4c-4.6,2.5-8.8,1.3-12.9-2
	c-7.4-6-10.8-13.9-15-22.2v28.1c0,4.7-0.1,9.4-0.1,14.1c0,1.8-0.2,3.3-2.6,3.6l-1.8,1.4c-3.5,1.3-7.8,0.5-10.5,3.8
	c-0.4,0.4-1.4,0.5-2.2,0.5c-6.7,0.5-13.5,0.9-20.2,1.5c-3.1,0.3-6.1,1.4-9.2,1.3c-5.5-0.2-10.9-0.7-16.3-1.6
	c-7.1-1.1-14.1-2.3-20.5-5.7c-3.7-1.9-6.4-6.1-12.2-4.1c-0.6-4.1-2.4-6.8-7.1-6.1v-4.6l-6.5-2.7l0.5-4.3l2.5-2.8
	c7.2,13.8,20.3,20.8,35.6,24.9c20.4,5.5,40.5,3.2,60.4-2.6c5.9-1.7,6-1.8,6-7.5c0-14.5,0-29,0-43.5c0-5.8,0-11.6,0-17.4
	c0-2.4,0.5-4.2,3.9-4c0.8,4.7,1.3,9.2,2.3,13.7c2,9.1,3.6,18.4,8.8,26.7c6.5,10.4,13.5,12,23.2,4.4c8.7-6.9,17-14.4,25.3-21.7
	c1.2-1.2,2.2-2.5,3.2-3.9c-7.9-3.3-15.3-6.4-22.7-9.4c-2.8-0.8-4.7-3.2-4.7-5.9c-0.7-7.2-2-14.3-3-21.4c-1.9-13.4-4.6-26.5-9.5-39.2
	c-2.3-5.9-5.9-11.3-10.6-15.8c-8.7-8.6-19.2-14.8-29.6-21.4c-8.9-5.6-17.6-10.3-28.9-8.8c-0.8,0.1-1.6,0.1-2.4,0
	c-7.7-0.8-15.5-2.2-20.3-8.2c-3.2-4-6.7-4.8-11.4-4.4c-1.6,0.1-3.2,0-4.7-0.1c1.5-0.5,3.1-1.1,4.7-1.4c2.1-0.5,4.3-0.8,6.5-1.2
	l1.7-0.3h1.2c4.4,5.5,9.3,10.7,17.1,11.5c6.9,0.7,14,0.1,21.1,0l2.4,0.6c7.3,4.6,14.5,9.5,22,13.8c14.4,8.4,27,18.2,33.8,33
	c2.5,5.5,4.2,11.3,6.2,16.9c0.6,2.4,1.2,4.8,1.8,7.1l5,21.6L369.7,734.3z"/>
<path class="st11" d="M1080.6,408.8c-2.7,0.3-5.1-0.1-6.2-2.8l1.3-2c-0.4-0.2-0.8-0.4-1.2-0.6c-0.6,0.8-1.1,1.7-1.6,2.5
	c-3.6-2.1-6.3-4.4-6.6-8.9c-0.5-6.8-1.8-13.5-2.8-20.2c0.9,2.2,2,4.3,3.2,6.3c1.8,2.8,3.5,6.9,6.2,7.7c5.7,1.6,12.1,2.3,18-0.7
	c5-2.6,10.1-4.9,15.1-7.4c14.7-7.4,29.4-14.9,44.2-22.2c7.9-3.9,16-7.4,24-11.1c-0.1,2.4-0.1,4.8,0.2,7.2c1.2,6.4-1.8,9.9-8.1,12.9
	c-24.4,11.7-48.5,24-72.9,35.8C1089.6,407.3,1084.9,407.7,1080.6,408.8z"/>
<path class="st12" d="M1174.2,349.5c-8,3.7-16.1,7.2-24,11.1c-14.8,7.3-29.5,14.8-44.2,22.2c-5,2.5-10.1,4.9-15.1,7.4
	c-5.9,3-12.3,2.4-18,0.7c-2.7-0.8-4.4-4.9-6.2-7.7c-1.2-2-2.2-4.1-3.2-6.3l0,0c0-2.2-0.2-4.4,0-6.5c0.5-8-3.9-14.4-10.2-18.5
	c-11-7.2-23.7-11.1-37.6-9.6c-3.6,0.4-7,1.9-10.6,2.6c-11.4,2.2-23.8,11.9-26.4,22c-1.2,4.5-0.4,9.5-0.5,14.3c1,1.3,1.9,2.6,2.7,4
	c4.2,8.4,12,11.7,21.5,12.2c7.2,0.4,14.4-0.5,21.5,2.6c7.3,3.1,11.1,6.7,11.1,13.9c0,1.7-0.2,3.4-0.3,5l-2.9,0.3l-0.4-0.3
	c0.9-10.3-2.8-16-11.7-17.1c-6.5-0.9-13-1.4-19.5-1.4c-6.9-0.1-13.5-2.8-18-7.6c-10.7-10.7-10.3-25.5-1.2-36.4
	c10.6-12.8,26.1-16.7,42.4-16.6c9.7,0,19.2,2.6,27.3,7.5c9.5,5.8,15.9,13.1,15.8,23.9c0,5.3,2.6,9.6,5,14.1
	c2.2,4.1,6.5,4.5,10.5,4.3c3.3-0.2,6.5-1.5,9.6-2.8c5.6-2.4,11-5,16.4-7.7c19.9-10,39.8-20,60.4-30.5c-8.4-4.5-16.3-8.8-24.2-12.9
	c-3.6-1.9-7.4-3.5-11.1-5.2c-3.7-1.7-5.8-6.3-11-5.7l0,0c0-2-1-2.9-3.2-2.8l-1.5-0.1l-12.8-7.1l-1.7-1.5c-4.1-3.3-10.9-3.1-13.9-8.5
	l2.7-1.7c7.7,7.1,17.2,11.3,27.5,14.1c4.8,3.1,9.4,6.4,14.4,9.3c7.4,4.4,14.9,8.7,22.5,12.6c5.5,2.8,11.7,4.4,16.4,8.4
	C1173.4,347.9,1173.8,348.7,1174.2,349.5z"/>
<path class="st15" d="M977.8,243.3c7.9,4.2,16.4,7.9,23.6,12.6c8.8,5.9,19.6,8.4,27.7,15.4c3.4,2.9,8.4,4.4,12.6,6.6
	c0.9,0.7,1.8,1.4,2.5,2.3l-2.9,0.7c-13.7-7.4-27.3-14.9-41-22.2c-15.8-8.4-31.6-16.7-47.6-25.1c-8.7,4.6-17.6,9.3-26.4,14
	c-13.2,7.2-26.2,14.6-39.5,21.7c-9.5,5.1-19.2,9.7-28.7,14.7c-14.2,7.5-28.3,15.2-42.5,22.7c-14.9,8-29.8,16-44.8,23.8
	c-9.5,5-19.2,9.6-28.8,14.5l-3.3-0.1c8.6-4.9,17.1-9.8,25.7-14.6c18.6-10.2,37.4-20.2,56.1-30.2c24.8-13.2,49.8-26.2,74.6-39.3
	c11.3-6,22.4-12.2,33.6-18.2c7.8-4.2,15.8-8.2,23.8-12.4L977.8,243.3z"/>
<path class="st16" d="M369.7,734.3l1.3-3.1c14.1,7.4,28.2,14.6,42.2,22.2c4.8,2.6,8.7,3.3,13.8,0.4c12.5-7.1,25.2-13.7,37.9-20.6
	l3.1-1.6c0.5-0.1,1-0.2,1.5-0.4c23.9-12.6,47.8-25.2,71.6-37.8c23.4-12.4,46.8-24.8,70.2-37.2c6.6-3.5,13.2-7.2,20.2-11l-6.9-4.2
	l1.8-1.4l9.9,4.6c-0.7,5.9-1.4,11.3-2,16.7V648c-5.8,2.8-10.8,5-15.6,7.5c-11.4,6-22.7,12.1-34,18.3c-7.5,4.1-14.9,8.6-22.5,12.6
	c-6.1,3.3-12.6,5.9-18.7,9.2c-8.9,4.7-17.2,10.5-26.4,14.5c-12.1,5.1-23,12.1-34.6,17.9c-12.1,6.1-24,12.5-36,18.8
	c-7.9,4.1-15.7,8.4-23.7,12.4c-1.5,0.7-3.4,0.8-5,0.2c-11-5.7-21.7-11.8-32.7-17.6C380.2,739.1,374.9,736.8,369.7,734.3z"/>
<path class="st11" d="M562.6,336.1c-6.3-2.4-9.4-4.9-12.3-9.9c0.9-3.8,4.2-6.8,8.4-7.4c9-1.9,18.1-3.8,27-5.8
	c5-1.1,10.3-1.6,13.8-5.7c6.3-1.1,8.4-6.5,12.3-10.1c0,3.4-0.2,6.8,0.2,10.1c0.9,8.9-4.2,14.4-11.9,18.7c-7.3,4.1-15.6,5.5-23.8,7.1
	C571.8,334.1,567.2,335.1,562.6,336.1z"/>
<path class="st10" d="M848,632.4c-11.7,0.1-22-3.9-31.9-9.1c-5.2-2.6-8.6-7.4-8.9-12.9c-0.2-3.8-0.3-7.7-0.4-11.6l2.9-1.4
	c3.5,5.5,9.2,9.4,15.8,11c10,2.5,20.2,4.4,30.3,6.5l0.5,0.2h0.6c0.6,0.7,1.2,1.5,2,2.2c6.1,5.6,5.5,11-1.8,14.9
	c-1.7,0.9-3.9,1.1-5.8,1.6L848,632.4z"/>
<path class="st15" d="M611.9,297.2c-3.9,3.6-6,9-12.3,10.1l-3.4-0.1c2.7-2.2,5.5-4.3,8.1-6.7c5.7-5.2,6.1-10.5,2-16.8
	c-5.4-8.4-14.3-12.5-23.6-15.8c-6.4-2.2-13-3.6-20-2.8c-3.1,0.4-6.2,1.1-9.3,1.2c-12.3,0.7-21.9,7-24.6,17.8
	c-2,7.7-7.2,12.7-13.2,17.3c-6.7,5.3-12.4,5.2-20.2,1.1c-7.4-4-14.9-7.9-22.3-11.9c-16.4-8.8-32.7-17.7-49.4-26.7
	c-4.1,2.3-8.4,5-12.8,7.3c-6.3,3.3-12.7,6.3-19.1,9.5c0-1.3,0-2.6,0-3.9c8.6-4.3,17.3-8.5,25.7-13c6.4-3.4,6.1-3.4,12.1,0.1
	c4.4,2.5,9.2,4.5,13.7,6.9c5.4,2.8,10.7,5.9,16,8.8c12.8,6.9,25.5,13.8,38.4,20.5c5,2.6,14.5,1.6,18.3-2.3c3.7-3.8,7.8-7.6,9-13.1
	c2.9-13.5,13.6-18.7,27.1-21.4c11.1-2.2,21.9-2.1,32.3,1.7c9.4,3.5,18.1,8,24.3,16.1C612.5,286.5,611.8,291.8,611.9,297.2z"/>
<path class="st14" d="M1026.7,786.6c0.7-1.1,1.3-2.2,2.1-3.3c0,0,1.1,0.5,1.7,0.8c0.2,0.9,0,2.1,0.6,2.5c8,5.8,16.7,10.9,26.5,13.8
	c15.7,4.7,24.9-0.1,30.9-10c4.8-8,9-16.2,12.9-24.6c3.1-6.6,5.3-13.5,7.9-20.2l1.6,1.4c-2.2,7.3-4.5,14.5-6.8,22.1
	c1.8,0.5,3.6,0.9,5.4,1.2c18.8,2,35.1-3.5,49.6-14.2c3.9-2.6,6-6.8,5.6-11.2c-0.1-1.7,0-3.4-0.1-5.1l2.4,1.3l2.3,7.4l2,0.1
	c-0.5,1.1-0.8,2.4-1.6,3.1c-4.3,3.3-3.9,7.2-1.9,11.3c-4.5,0.6-2.2-4.6-6.3-5.3c-1.8,1.9-3.9,4.3-6.3,6.4c-1.2,1.2-3.2,3.1-4.2,2.8
	c-4.8-1.2-6,1.3-5.7,5.5c-7-2.9-12.6-1.3-18.2,0.7c-8.3,2.9-16.4,0.6-24.6-1.2c-6.2,12.7-11.4,25.9-25.5,32.1l-4.2,17.1h-1.2
	l1.8-15.6c-16.1-0.2-29-7-41.7-14.6L1026.7,786.6z"/>
<path class="st9" d="M600,576.3c1.2,7.4-4.1,11.7-9.8,15.1c-9.7,5.9-20.8,8.5-32.4,9.1c-1.6-0.7-3.2-1.4-4.8-2.2
	c-2.7-1.3-4.7-3.1-4.1-6.2c0.6-3.2,2.5-5.5,6.3-6.3c3.5-0.7,6.9-2.2,10.5-2.6c12.5-1.3,24.3-6.3,33.4-14.3
	C599.6,571.7,599.8,574,600,576.3z"/>
<path class="st6" d="M203,1031.6c-0.5,4-0.9,8-1.5,12c-1,7.1-2.1,14.1-3.2,21.2c-0.4,1.1-1,2.2-1.7,3.2c-4.6-3.1-9.3-6.1-13.7-9.4
	c-5.4-4-10.7-8.2-16.8-13C178.5,1040,190.9,1036.1,203,1031.6z"/>
<path class="st10" d="M195.3,1079.6c3.5,0.6,7,1.4,10.5,1.9c7,1,13.9,3.6,21,1.1c3.3-1.2,6.4-2.8,9.5-4.3c0.5,7-1.3,13.1-7.7,17.5
	c-6.7,2-13.4,4-20.5,2.9c-4.3-0.7-8.6-1.8-12.8-2.7C189.9,1090.5,192.1,1085,195.3,1079.6z"/>
<path class="st17" d="M1011.2,167.1c0.4-1.1,1.4-2.6,1-3c-1.3-1.4-3-2.6-4.8-3.4c-1-0.5-2.6-0.1-3.9-0.1c-7.1-0.3-9.2-2.2-9.9-8.4
	c-0.4-4-1-8-1.6-11.9c0-3.4,0-6.8-0.1-10.2c1.6-4.3,0.3-9.2,3.6-13.2l2.4,1l3.3,6.1c-5-0.1-6.3,2.3-6,6.1c0.6,8.4,1.1,16.7,1.7,25.9
	c2.9,0.5,5.6,1.5,8.3,1.3c10-0.9,20.2-1.7,28.6-7.7c0.1,0,0.4,0.2,1.2,0.6c-3.2,8.5-11.5,11.9-20,16.5c1.3,3.4,2.9,6.7,3.9,10.2
	c1.1,3.9,3.6,5.5,7.9,5.5c7.3,0.1,14.4-1.9,20.3-5.7c2.6-1.6,3.9-3,3.6-5.6c-0.2-2.1-0.5-4.3-0.9-6.4c-1.2-4.9-2.4-9.7-3.7-14.5
	l3.2,0.6c2.1,6.6,4.1,13.2,6.2,19.8c-3.9,11.9-21.1,16.2-31.6,14.4c-3.4-0.6-7.3-1.9-8-6.7C1015.2,174.4,1012.7,170.8,1011.2,167.1z
	"/>
<path class="st12" d="M738.7,344.9l3.3,0.1c1.7,1.4,3.4,2.7,5.3,3.9c6,3.3,12,6.8,18.3,9.7c11.1,5,20.4,13,32.9,15.6
	c0.6,0.1,1.2,0.8,1.7,1.3c1.6,1.4,2.9,3.2,4.8,4.2c4.7,2.6,10,4.3,14.3,7.2c9.7,6.8,23.6,2.7,26-7.7c0.7-3.8,2-7.4,3.8-10.9
	c10.4-18.2,31.5-24.9,50.2-21.1c7.2,1.5,13.8,3.5,19.7,7.8c3.4,2.5,7.5,4.1,8.6,8.5L927,364c-9.1-8.1-20.6-13.4-33.1-15.4
	c-9.6-1.5-18.5,1.8-26.9,5.8c-11.4,5.4-15.9,15-19,25.6c-2.7,9.3-11.1,13.2-21.6,11.9c-9.1-1.2-16-6.2-23.5-10
	c-15.2-7.6-29.6-16.5-44.4-24.7c-5.7-3.2-11.6-6.1-17.5-9c-1-0.5-2.5-0.3-3.8-0.4L738.7,344.9z"/>
<path class="st18" d="M412.1,532.1c7.2-5.4,7.7-5.4,15.1-1.5c6.1,3.2,12.2,6.4,18.3,9.7c1.5,0.8,2.6,2.8,4.3,0.3
	c0.1-0.1,1.2,0,1.2,0.1c1.7,6.2,8.4,6.7,13,9.4c5,2.9,10.3,5.6,15.4,8.5c2.2,1.2,4.4,2.5,6.6,3.9c10.5,6.4,23.5,2.2,27.4-7.4
	c0.6-1.6,1.5-3.1,2.1-4.6c4.6-11,16.9-19,30-19.5l4.8,1.4c-1.4,0.5-2.8,0.8-4.3,1.1c-13,1.7-23.2,7-27.9,18.7
	c-2.3,5.6-6,10.6-10.8,14.5l-16.9,1.8c-0.5-0.8-1.2-1.6-2-2.2c-20.3-10.8-40.9-21.3-60.9-32.6c-5.2-2.9-8.9-2.8-13.4-0.1
	L412.1,532.1z"/>
<path class="st18" d="M299.9,530.8c3.3,2.5,6.6,5.1,11.4,3.2c1,2.8,2,5.7,3,8.5h-0.4c-12.8-10.4-28.1-11.8-44.1-9.5
	c-10.2,1.5-19.2,6.3-26.7,12.9c-7.1,6.2-10.5,17-0.1,24.2c-0.7,6.2,1.4,12.7-1.6,18.8c-6.1-3.8-6.8-9.9-7.4-15.9
	c-0.3-2.6,0.3-5.3-0.2-7.9c-2-12.3,4.2-20.7,15-27c13.6-8.1,28.2-11,44.1-7.6C295.2,530.8,297.5,530.9,299.9,530.8z"/>
<path class="st9" d="M192.1,1129.4c2.3,1.9,4.8,3.6,7.3,5.1c4.7,2.3,10.4,2.3,15.1-0.1c12.2-5.8,25.8-7.2,38.5-11.4
	c7.5-2.5,15.2-4.9,21.2-10.1c0.4,0.9,1.3,2.3,1,2.6c-6.4,6.4-13.1,12.2-23.4,13.5c-8.6,1.1-17.1,3.5-25.5,5.8
	c-4.3,1.1-8.1,3.8-12.3,4.9c-5.2,1.3-10.8,1.8-16.1-0.5c-1.9-0.7-3.8-1.3-5.8-1.7l-1.5-4.2C191.2,1132.1,191.6,1130.8,192.1,1129.4z
	"/>
<path class="st10" d="M1214,652.7c3.5,0.1,4.2,2.4,4.3,5c0.1,4.6,0,9.1,0,14.2l-23,13.1l-2-0.3c0.2-1.9,0.4-3.8,0.6-5.7
	c4.8-1.2,2-4.8,2.5-7.3c0.6-3.1-0.9-6.8,3.3-8.8l6.7-4.2C1211.6,659.7,1211.6,654.9,1214,652.7z"/>
<path class="st16" d="M226.7,795.1l-2.5,2.8c-0.7-7.5-1.4-15-2.1-22.5c-0.4-4.2-0.2-8.5-3.1-12.1l0.2-1.9c0.5,0.1,1,0.2,1.5,0.2
	l0.7,1l0.5-1.4l0.1-1.9c-0.2-1.6-0.5-3.1-0.7-4.7c-0.7-9.8-1.2-19.5-2-29.3c-1.2-13.5-2.7-27-4.1-40.6l2.5-3.2
	c0.5,3.5,1.1,7,1.6,10.5c2.3,15.2,4.3,30.3,4.6,45.7C224.3,756.8,225.7,775.9,226.7,795.1z"/>
<path class="st6" d="M240.9,945.9c-5.7,9.5-11.4,19.1-17.2,28.6c-1.4,2.2-3,4.4-4.5,6.5c-0.3-1.1-0.7-2.2-1.3-3.3
	c-5.8-9-3.9-18.8,5.6-24.2C229,950.4,235.1,948.4,240.9,945.9z"/>
<path class="st19" d="M195.3,1095.9c4.3,0.9,8.5,2,12.8,2.7c7.1,1.2,13.8-0.9,20.5-2.9c0,1.4,0,2.7,0,4.1c-3.4,3.3-6.6,6.7-10.1,9.9
	c-5.7,5.3-9.6,5.1-15.1-0.6c-2.5-2.6-4.9-5.4-8.1-8.9c-1.4,2.5-2.3,4-3.2,5.5c-0.4,0.1-0.7,0.1-1.1,0.1c-4.9-2.2,2.2-4.4-0.6-6.7
	C195.3,1100.9,195.5,1098.6,195.3,1095.9z"/>
<path class="st14" d="M217.7,681.5l-2.5,3.2l-1.1-21.3l-0.6-0.1c-2,7.1-4.1,14.2-6.1,21.4h-2.5c1.6-6.8,3.2-13.5,4.9-20.3
	c1.2-3.2,2-6.7,3.7-9.6c1.9-3.3-0.4-4.6-2.2-6.3l0,0c4.7-0.6,7.3-3.1,8-7.3l-0.1,0.1l1.8-1.5l-0.4-3.3l19.2-10.6
	c0.1,1.3,0.1,2.6,0.2,3.9c-6.9,2-12.8,5.6-15.8,11.8c-2.4,4.7-4.1,9.7-4.9,14.9C218,664.7,218.1,673.1,217.7,681.5z"/>
<path class="st18" d="M1199.6,662.9c-4.2,2-2.7,5.7-3.3,8.8c-0.5,2.5,2.3,6.1-2.5,7.3c1.3-16.8,0-27.1-5-38.5l-0.4,2.2l-2,0.2
	c-0.8-2.5-1.6-5-2.4-7.4c-2.4-6.6-7.9-10-15.3-9.3c-1.8,0.2-3.6,0.4-5.4,0.5c-0.5-1.8-1-3.5-1.5-5.3c1.4,0.7,3.1,2.4,4.3,2.1
	c8.4-2,14.6,1.8,20,6.7c2.7,2.4,5.7,4.8,6.3,9c0.3,2,3.1,4.2,5.4,5.5c5.2,3,10.8,5.5,16.2,8.1c-2.4,2.2-2.4,7-7.7,6l4.8-4.1
	c-5.6-2.4-9.7-6.4-15.9-7.4C1195.6,655.5,1196.5,658.7,1199.6,662.9z"/>
<path class="st16" d="M252.1,289.7c-0.2-11.9,3.6-23.2,6.9-34.6c5.3-18.1,11.5-35.9,20.6-52.7c0.9-1.4,1.9-2.8,3-4.1l1.5,1.5
	c-10.6,20.7-18.8,42.4-24.6,64.7c-2.2,8.3-3.8,16.8-5.7,25.2L252.1,289.7z"/>
<path class="st14" d="M412.1,532.1l1.8,1.4l-17.6,10l-4.8,2.6c-13.7,7.1-27.4,14-40.9,21.3c-7.2,3.9-14.3,4.8-21.3,0.4
	c-3.3-2.1-5.9-5.3-8.8-7.9l1.6-1.5c2.5,2,4.9,4.2,7.5,6.1c1.6,1,3.4,1.9,5.2,2.6c3,1.5,6.7,1.5,9.7,0c5.4-2.7,10.6-5.8,15.9-8.7
	c10.8-5.5,21.7-11,32.6-16.5c0.8-0.4,1.3-1.4,2-2.1c3.2-1.4,6.4-2.9,9.6-4.3C407,534.3,409.6,533.2,412.1,532.1z"/>
<path class="st15" d="M1098.1,556.8c0,4.4,0,8.8,0.1,13.3c-0.4,0.3-1.1,0.5-1.2,0.9c-2,10.6-2.6,21.5-1.8,32.3
	c0.4,4.1,2.3,8,3.5,11.8h8.3c0.8,0.1,1.6,0,2.4-0.1c2.2-0.7,4.6-2.4,6.5-0.2c1.5,1.9,2.5,4.1,2.9,6.5c0.3,3.4,0.3,6.9,0.1,10.3
	l4.8,2.1l-6.4,0.3v-0.5c-0.5-3.3-1.1-6.5-1.5-9.8c-0.3-2.5,0.8-5.5-2.1-6.6c-3.7,0.4-6.8,0.8-9.9,0.9c-5.5,0.1-9-2.3-10-7.2
	c-0.9-4.2-1.2-8.5-1.8-12.8V595c-1.5-6.6-0.2-12.9,1.4-19.3c1.3-5.3,1.2-10.8,2.1-16.1C1095.5,558.4,1097.1,557.6,1098.1,556.8z"/>
<path class="st16" d="M923.8,739.9c-1,0.8-2.7,1.6-2.8,2.5c-0.4,3.6-0.3,7.2-0.3,10.8l-3.1-15.7c-0.3-1.6-0.6-3.2-0.9-4.8
	c0.5-0.1,1.4,0,1.5-0.3c4.8-10.7,15.3-11.8,25.7-12.8c12.5-1.1,23.1-5.4,31.2-14.3c1.6-1.7,2.2-4.1,3.3-6.2c0.9-0.9,2.4-1.8,2.4-2.8
	c0.3-3.3,0.1-6.7,0.1-10.1c3.8,7.9,2,14.9-3.9,21.3c-8,8.7-18.6,13-30.6,14.8c-4.1,0.6-8.4,0.9-12.5,1.6
	C923.4,725.8,920,731.2,923.8,739.9z"/>
<path class="st16" d="M600,576.3c-0.3-2.3-0.5-4.6-0.8-7.4c-9.1,8-20.8,13-33.4,14.3c-3.5,0.4-6.9,1.9-10.5,2.6
	c-3.8,0.8-5.7,3.1-6.3,6.3c-0.6,3,1.3,4.9,4.1,6.2c1.6,0.7,3.2,1.4,4.8,2.2l5.1,4.1c-0.5,0.5-1,1.1-1.5,1.6
	c-5.7-2.8-11.9-4.9-15.4-10.4l-0.2-6.9c3-4.4,7.6-6.2,12.8-7.3c5.2-1,10.8-1.7,15.9-3.3c9.2-2.8,18.3-5.7,23.4-14.2l2.4-2.8
	L600,576.3z"/>
<path class="st16" d="M974.7,545.4c0,1.4-0.6,3.4,0.2,4.1c2.4,2.2,2.4,3.6,0.1,6c-1.3,1.4-0.8,4.3,2.8,4.2h1.3
	c-0.5,0.5-1.1,1-1.7,1.4c-18.4,11-37,21.6-55.2,32.9c-6.8,4.2-13.3,4.4-20.6,2.4c0.1-0.7,0.2-1.4,0.3-2.1c8.5,1.8,15.6-0.4,22.8-5
	c15.7-9.9,32-19.1,48.1-28.6C973.4,555.6,974.1,550.5,974.7,545.4z"/>
<path class="st11" d="M247.2,894.2c0.6-9.1,1.3-18.1,2-27.2c0.5-5.8-0.8-11.5-3.8-16.6c-0.7-1.5-1.2-3.1-1.6-4.7
	c1.9,1.1,2.9,1.4,3.2,1.9c2.9,5.7,7.2,11,7,17.8c-0.3,9.9,0.2,19.8-0.2,29.7c-0.2,4.9-1.7,9.6-2.7,14.5
	C249.8,904.5,248.5,899.4,247.2,894.2z"/>
<path class="st18" d="M204.8,684.7h2.5c-0.6,2.8-1.1,5.6-1.7,8.4c-3.4,16-6.4,32.1-5.6,48.5c0.3,5.2,1.9,9.2,7.1,11.9
	c4.3,2.2,8.1,5.1,12.2,7.8l-0.2,1.9c-4.3-2.2-8.6-4.3-12.9-6.5c-7.2-3.7-9.4-9.4-9.6-16.8c-0.3-16.2,2.4-32,6-47.7
	C203.2,689.6,204,687.2,204.8,684.7z"/>
<path class="st16" d="M848,632.4l3.2,1.5c-0.8,1.4-1.6,2.7-2.4,4c-0.3-0.1-0.7,0-1,0.2c-16.9,10-33.9,19.9-50.7,29.9
	c-3.8,2.3-7.3,5.2-10.9,7.8l-1.8-2.9c8.4-5.2,16.8-10.5,25.2-15.6c11.8-7.1,23.7-14.1,35.4-21.3C846.5,635.3,847.1,633.7,848,632.4z
	"/>
<path class="st18" d="M353.7,176.6c4.5,2.3,9,4.9,13.7,7c6.5,2.8,10.7,7.6,13.5,13.3c5.1,10.2,9.6,20.5,14.1,30.9
	c1.1,2.5,0.8,5.6,1.2,8.4c-0.3,0-0.6-0.1-0.8-0.1c-0.6-0.7-1.6-1.3-1.8-2c-3.5-13.1-9-25.6-16.2-37.3c-1.9-3.4-4.6-6.3-8-8.6
	c-5.3-3.4-11.4-5.9-17.2-8.7c-0.4-0.1-0.9-0.1-1.3-0.1v-2.5L353.7,176.6z"/>
<path class="st12" d="M898.4,432.3c-5.2-2.5-10.3-5-15.6-7.4c-1.5-0.6-3.1-1.1-4.7-1.5c0.2-3.3-0.3-6.9,0.8-9.9
	c1.9-5,7.3-7,12.5-7.4c11.9-0.8,23.5-3.8,34.1-9l0.1,0.1c-0.1,3.7-2.4,5.3-6.1,6.3c-8.7,2.3-16.9,5.9-26.3,5.4
	c-2.8-0.1-6.1,1.3-8.6,2.8c-4.3,2.5-4.6,7-0.8,10.2c2.1,1.7,4.8,2.8,7.1,4.3c2.7,1.8,5.3,3.7,8,5.5L898.4,432.3z"/>
<path class="st16" d="M1193.2,684.7l2,0.3c-3.1,18.7-8.8,36.9-17.1,54.2c-1.7,3.4-4.5,6.4-6.8,9.5l-2-0.1
	c9.3-15.7,16-32.6,19.8-50.1C1190.3,693.8,1191.9,689.3,1193.2,684.7z"/>
<path class="st18" d="M561.4,606.3c0.5-0.5,1-1.1,1.5-1.6l37.8,20.1c7,3.7,14,7.3,20.9,11.1c1.7,1.1,3.3,2.4,4.7,3.8l-1.8,1.4
	c-12.3-6.6-24.5-13.2-36.8-19.9C579,616.2,570.2,611.2,561.4,606.3z"/>
<path class="st18" d="M902,594.4c-0.1,0.7-0.2,1.4-0.3,2.1c-6-2.3-9-6.9-11.6-12.1c-3.5-7.1-7.9-13.5-16.6-16.2l-4.7-1.6
	c-6.7-2.4-13.7-2.6-20.7-2.4l-3.4-1.6c16.5-4.5,40.8,2.2,48.8,21C895.2,587.9,898.1,591.6,902,594.4z"/>
<path class="st15" d="M353.7,176.6l-2.8,0.2c0.4-3.5,0.9-6.9,1.3-10.4c1-1.9,2.1-3.9,3.1-5.8c4.6-0.5,9.2-0.6,13.6-1.6
	c3.1-0.7,3.8-3.5,3.7-6.2c-0.1-2.1,1.4-5.1-3-5.2l-0.2-0.1c3.9-2.4,3.7-6.5,4.8-10v-1.6c0-0.9,0-1.8,0-2.7l1.5-3
	c0.4,2.9,1.6,5.5,0.5,8.9c-1.3,3.9-0.4,8.5-0.4,12.8c-0.1,7.8-1,8.8-9.1,10.7c-1.4,0.5-3,0.8-4.5,0.9c-2.7-0.4-5.3,1.3-5.8,3.8
	C355.5,170.2,354.6,173.4,353.7,176.6z"/>
<path class="st18" d="M252.1,289.7h1.8c-1.1,9.2,2.2,18.4,9,25.3c6.2,6.5,12.1,13.2,18.2,19.8l-1.6,2.8c-4.4-4.7-8.6-9.5-13.2-14
	c-1.5-1.4-3.9-2-5.9-3c0-1.1,0.6-2.9-0.1-4.1c-2.2-4-5.3-7.6-7.4-11.7C250.2,299.9,249.5,294.8,252.1,289.7z"/>
<path class="st18" d="M600.4,561.4l-2.4,2.8c1.8-10.7-3.9-17.8-13.3-23.1c-7.4-4.1-14.9-7.9-24-7.8c-0.9,0-1.8-0.7-2.8-1.1l6.4-1.4
	l12.6,1.5c2.3,1.9,4.8,3.7,7.3,5.3c5.9,3.3,11.3,7,14.7,12.7c0.7,1.2,1.8,2.9,1.4,3.9C599.4,556.8,603.5,559.2,600.4,561.4z"/>
<path class="st16" d="M809.7,597.6l-2.9,1.4c-3.8-7.9-0.3-14.4,4.9-20.2c6.5-7.3,14.8-12.5,25.1-14.5l-1.6,2.8
	c-5,2.7-10,5.2-14.8,8.1C811.6,580.4,806.8,587.5,809.7,597.6z"/>
<path class="st3" d="M395.3,236c0.3,0,0.6,0,0.8,0.1c3.6,5.3,3,11,0.6,16.2c-3.4,7.4-6.1,14.7-5.4,22.9l-2.9,2.9
	c0.2-7.1-1.6-14.6,3-21.2c4-5.6,3.8-11.8,3.4-18.1C395,237.9,395.1,237,395.3,236z"/>
<path class="st12" d="M375.8,130.1l-1.5,3l-5.2-7.9c0.4-3.8,0.5-7.5,0.5-11.3c-0.3-4.6-2.4-6.2-7.8-7.2c1.3-0.5,2.6-1.1,3.9-1.6
	c2.9-1,4.7-2.7,4.2-5.7c1,1.3,2.9,2.8,2.7,3.9C371.1,112.6,374,121.2,375.8,130.1z"/>
<path class="st12" d="M930.5,385.4c2,0.2,2.6-0.7,2.9-2.4c1.3-6-2.4-10.8-4.8-15.8c-0.5-1.1-1.1-2.1-1.7-3.2l0.5-0.4
	c0.8,0.2,1.8,0.2,2.2,0.6c10.2,10.4,8.1,22.5-1.1,32.2c-0.6,0.6-1.9,0.5-2.9,0.8l-0.1-0.1c1.1-2.1,2.3-4.3,3.2-6.4
	C929.5,389,929.9,387.2,930.5,385.4z"/>
<path class="st18" d="M284.1,199.8l-1.5-1.4c3.6-7.3,10.2-11.8,17.6-15.3c5-2.4,10.3-4.3,15.5-6.4v2.8
	C302.9,183.2,292.1,189.6,284.1,199.8z"/>
<path class="st18" d="M239.8,629.8c-0.1-1.3-0.1-2.6-0.2-3.9c3.3-1.9,6.3-4.2,9.8-5.6c4.1-1.7,5.1-4.3,4.3-7.9l5,8.6
	c-6.4-2.1-8.9,3.6-13.3,6h13.3c-2.2,0.4-4.3,0.7-6.5,1.2c-1.6,0.4-3.1,0.9-4.7,1.4L239.8,629.8z"/>
<path class="st15" d="M315.7,179.4v-2.8c1.4-5,2.9-9.9,4.2-14.9c0.3-1.8,0.6-3.7,0.6-5.6l3.2,0.1c-1,4.6-1.6,9.3-3.1,13.8
	c-1.9,5.4-3,10.2,4.1,13.2c0.4,0.2,0.3,1.3,0.5,2C320,186.2,318.6,181.8,315.7,179.4z"/>
<path class="st9" d="M211.2,648.4c1.9,1.8,4.2,3.1,2.2,6.3c-1.8,3-2.5,6.4-3.7,9.6c-3-1-3.4-3.2-3.3-5.8c0.1-3.8,0-7.7,0-11.5
	L211.2,648.4z"/>
<path class="st16" d="M971.8,500.4c2.7,2.3,2.9,5.3,2.9,8.4c-0.1,7.8,0,15.6,0,23.5c-0.9-6-2.2-12.1-2.8-18.2
	C971.4,509.6,971.8,505,971.8,500.4z"/>
<path class="st18" d="M211.2,648.4l-4.8-1.3c-1.5-1.1-2.1-2.3-0.2-3.3c4.7-2.5,9.5-4.9,14.2-7.4l0.4,3.3l-1.8,1.5l0.1-0.1
	c-7.2,1.1-8.7,2.4-8,7.3L211.2,648.4z"/>
<path class="st18" d="M1091.8,594.9v2.9l-19.1-8.8l5-0.2L1091.8,594.9z"/>
<path class="st16" d="M223.7,802.2l6.5,2.7v4.6l-4.8-2.3l-4.4,3.7C221.9,808,222.8,805.1,223.7,802.2z"/>
<path class="st16" d="M564.4,530.9l-6.4,1.4h-7.7l-4.8-1.4C551.8,528.4,558.1,529.6,564.4,530.9z"/>
<path class="st16" d="M1169.5,925.7c-0.5-0.5-1.4-1-1.4-1.5c-0.1-6.5-0.2-12.9,0-19.4c0-0.8,1.5-1.5,2.3-2.2
	C1170,910.3,1169.8,918,1169.5,925.7z"/>
<path class="st16" d="M1071.7,821.2h1.2c0,4.7,0,9.4,0,14.1c0,1.8-0.2,3.3-2.7,3.3C1070.7,832.7,1071.2,826.9,1071.7,821.2z"/>
<path class="st16" d="M328.4,819.8l1.8-1.4l-0.5,24.6c-0.6-1.7-1-3.5-1.2-5.3C328.4,831.7,328.4,825.7,328.4,819.8z"/>
<path class="st18" d="M1077.4,585.9c-0.3-3.5-0.7-7-0.9-10.5c0-0.3,1.6-0.7,2.4-1.1C1078.4,578.2,1077.9,582.1,1077.4,585.9z"/>
<path class="st16" d="M190.8,1111.5c2.2,5.2,2.2,10.9,0,16V1111.5z"/>
<path class="st16" d="M844.7,562.7l3.4,1.6l0,0l-6.3,1l-3.2,0.5l1.5-2.4L844.7,562.7z"/>
<path class="st12" d="M388.6,278.1l2.9-2.9l0.3,1.7c0,1.3,0,2.6,0,3.9l-3.1,0.3l-0.2-0.2L388.6,278.1z"/>
<path class="st19" d="M192.1,1129.4c-0.5,1.3-0.9,2.6-1.4,4c-2.6-1.5-2.6-3,0.1-4.4C191.2,1129,191.7,1129.2,192.1,1129.4z"/>
<path class="st18" d="M840,563.3l-1.5,2.4l-3.2,1.3l1.6-2.8L840,563.3z"/>
<path class="st16" d="M191.1,1105.9c0.4,0,0.7-0.1,1.1-0.1c-0.3,0.9-0.5,1.9-0.7,2.8L191.1,1105.9z"/>
<path class="st18" d="M252.5,610.6l1.2,1.6L252.5,610.6z"/>
<path class="st11" d="M298.4,1050.6c2.6,5.6,2.8,11-2.1,15.7c-7,5-16,7.3-24.9,6.4l-5-3l-1.1-4.6v-2.8c6.2-0.5,12.4-0.8,18.6-1.6
	c6.1-0.6,11.2-4.6,12.8-10.1L298.4,1050.6z"/>
<path class="st14" d="M298.4,1050.6l-1.6,0.1c0-31,0-62,0-92.9c0-4.4,0-8.8,0-13.1c0-0.9,0-1.8,0.1-2.7c0.5,0,1.1,0,1.6,0
	L298.4,1050.6z"/>
<path class="st16" d="M296.7,1082.5c0.4-5.3,0.9-10.6,1.3-16l3.9,1.1c-3.9,3-1.4,7-1.9,10.5C299.6,1080.2,300.3,1082.6,296.7,1082.5
	z"/>
<path class="st13" d="M1121.8,1081.3c1.9-3.6,5.2-1.7,8.1-1.8c2.1,4.7,4.1,9.5,6.5,15c2.3-3.4,4.3-6.3,6.3-9.3
	c3.5-6.9,7.1-13.8,10.5-20.8c0.2-0.4-0.6-1.2-1-1.8l16-1.7c8.1,8.4,9,17.7,4.5,27.8c-0.7,1.3-1.2,2.6-1.4,4.1
	c-0.6,7.2-1.1,14.3-1.6,21.5c0,1,0.3,2.2-0.2,2.8c-1,1.2-2.5,2.8-3.8,2.8c-1.7-0.3-3-1.4-3.6-2.9c-0.3-3.2-0.4-6.4-0.2-9.7
	c-8.7,0.9-17,1.9-25.4,2.7c-3.8,0.3-4.9,2.2-4.8,5.3c0,6.5,0.1,13.1,0,19.6c-0.1,4.2-0.2,4.2-6.1,5.6v-26c-6,1.5-7.3,3.8-8.5,13.8
	c-3.1,1.6-6.4,3.5-9.8,5.1c-4,1.9-8.8,1.9-12.8,0c-8.7-3.9-16.5-9.3-23.1-15.8c-0.8-0.8-0.9-2.2-1.3-3.3l12.5-1.7l2,0.2
	c0.1,6,2.2,8.7,7.4,8.5c4.2-0.1,8.3-1.1,10.8-4.7c3.5-4.7,6.7-9.6,9.6-14.7C1115.6,1095.4,1118.5,1088.3,1121.8,1081.3z"/>
<path class="st6" d="M1135,1009.9l7.4,2.9c1.1,14.8,2.4,29.5,3.2,44.3c0.1,2.8,2,3.6,3.5,5c-1,1.6-2.6,3-3,4.7
	c-1,4-1.6,8.1-2.3,12.2c-0.4,2.1-0.8,4.2-1.2,6.2c-2,2.9-4,5.9-6.3,9.3c-2.4-5.5-4.4-10.2-6.5-15c0.1-0.4,0.1-0.8,0.1-1.2
	c0.5-1.5,1.5-2.9,1.5-4.4c0.2-5.8,0.2-11.6,0.2-17.4c0.6-1.5,1.1-3,1.3-4.5c0.2-7.7,0.1-15.3,0.2-23c0.7-1.4,1.1-2.9,1.4-4.4
	C1134.8,1019.7,1134.9,1014.8,1135,1009.9z"/>
<path class="st8" d="M1135,925.6l-6.7-20.1c-4.6-6.3-1.5-12.6,0-18.8c2.6-10.4,5-20.9,8-31.2c2-6.8,6.9-12.1,13.4-17.8
	c0.2,2.4,0.7,3.8,0.3,4.9c-3,7.6-6,15.2-9.2,22.8c-3.2,7.6-4.8,15.7-4.5,23.8c0.2,10.4,0.1,20.8,0,31.2
	C1136,922.1,1135.6,923.8,1135,925.6z"/>
<path class="st19" d="M1142.5,1085.2c0.4-2.1,0.8-4.2,1.2-6.2c0.8-4.1,1.3-8.2,2.3-12.2c0.4-1.7,2-3.1,3-4.7l2.9,0.6
	c0.4,0.6,1.2,1.4,1,1.8C1149.6,1071.4,1146.1,1078.4,1142.5,1085.2z"/>
<path class="st16" d="M1135,1009.9c-0.1,4.9-0.1,9.8-0.4,14.7c-0.3,1.5-0.7,3-1.4,4.4c0-13.7,0-27.4,0-41.1c0.6,2.7,1.1,5.5,1.5,8.3
	C1134.9,1000.7,1134.9,1005.3,1135,1009.9z"/>
<path class="st16" d="M1142.5,997.1c-0.6-1.2-1-2.5-1.3-3.9c-0.5-9.9-0.9-19.8-1.3-29.7c3.4,0,2.6,2.3,2.7,4.1
	C1142.6,977.5,1142.5,987.3,1142.5,997.1z"/>
<path class="st16" d="M1126.4,907c-0.4,8.5-0.9,17-1.2,25.4c-0.1,2.6,0,5.2,0,7.8c-0.5-1-1.5-1.9-1.5-2.9c-0.1-8.3,0-16.7-0.1-25
	C1123.5,910,1123.8,908,1126.4,907z"/>
<path class="st16" d="M1131.7,1056.5c0,5.8,0,11.6-0.2,17.4c0,1.5-1,3-1.5,4.4c0-5.9-0.1-11.8,0-17.7
	C1130,1059.2,1131.2,1057.9,1131.7,1056.5z"/>
<path class="st8" d="M1151.9,835.8l-0.8,0.7c-0.2-0.4-0.3-0.8-0.4-1.2c0-0.1,0.3-0.3,0.5-0.5L1151.9,835.8z"/>
<polygon class="st8" points="1152.5,832 1153,831.9 1153,832.3 "/>
<path class="st6" d="M271.4,1072.6c0,2.4,0,4.8,0,7.2c0.2,6.4,0.4,12.7,0.6,19.9h-43.5c0-1.4,0-2.7,0-4.1c6.4-4.4,8.2-10.5,7.7-17.5
	c1.7-4.2,3.3-8.4,5-12.6c5-12.2,8.8-24.8,17-35.7c0.7-1,2.2-1.5,3.3-2.3c0.5,4.8,1.1,9.6,1.6,14.4c0.7,6.7,1.4,13.5,2.1,20.2v2.8
	l1.1,4.6L271.4,1072.6z"/>
<path class="st8" d="M263.2,1042.1c-0.5-4.8-1.1-9.6-1.6-14.4c-1.4-3.8,0.1-7.1,1.8-10.6c5-10.2,9.6-20.5,14.3-30.8
	c6.4-13.9,12.7-27.8,19-41.7c0,4.4,0,8.8,0,13.1c-0.5,0.7-1.5,1.5-1.5,2.2c-0.5,9.7-4.4,18.5-7.8,27.5c-3.9,10.3-8.4,20.5-12.9,30.6
	C270.9,1026.1,267,1034.1,263.2,1042.1z"/>
<path class="st19" d="M1041.3,280.9l2.9-0.7c3.9,1.8,7.8,3.6,11.7,5.4c3.6,1.7,7.3,3.5,11.3,5.4c1.7-10.1,3.1-19.2,4.8-29.7
	c1.3,1.3,2.6,2.6,3.8,4c5.7,8.3,11.1,16.8,17,24.9c3.5,4.7,2,8.6-1.1,12.5l-2.7,1.7c3,5.4,9.8,5.2,13.9,8.5c-2.4,0-4.9,0.5-7-0.2
	c-3.6-1.2-7.9-2.4-10-4.9c-3.4-4.3-2.8-4.6-8.4-3.8c-1.5,0-2.9-0.1-4.3-0.4c1.4-6.9-3.2-10-11.7-8.5c-1.6-1.6-3-4.4-4.8-4.6
	c-4.8-0.7-7.6-4.2-11.6-6.8c-0.9,3.7-0.9,8.1-6.6,5.1C1037.1,285.5,1038.3,282.9,1041.3,280.9z"/>
<path class="st11" d="M978.1,381.1c0.1-4.8-0.7-9.8,0.5-14.3c2.7-10.1,15.1-19.8,26.4-22c3.6-0.7,7-2.2,10.6-2.6
	c13.9-1.5,26.6,2.4,37.6,9.6c6.3,4.1,10.7,10.5,10.2,18.5c-0.1,2.2,0,4.4,0,6.5l-13.1-10c-3.7-2-7.2-4.6-11.2-6
	c-13.6-4.7-27.1-2.4-40.4,1.7C989.4,366.3,982.9,372.9,978.1,381.1z"/>
<path class="st17" d="M998.8,362.6c13.3-4.1,26.7-6.5,40.4-1.7c4,1.4,7.5,4,11.2,6c-0.6,0.4-1.2,1.1-1.8,1.1
	c-12.8,0.1-25.7,0.3-38.5,0C1005.7,367.8,1001.4,366.5,998.8,362.6z"/>
<path class="st18" d="M1055.2,580.4l-21.1-9l-7-3l-3.2-1.5l-13-6.9l3.7-0.2l26.5,11.5c3.6,2.8,7.2,5.5,12.1,6.3
	C1054,577.6,1054.5,579.3,1055.2,580.4z"/>
<path class="st18" d="M1068.1,587.4l-4.8-2.8C1065.6,584.6,1068.3,583.9,1068.1,587.4z"/>
<path class="st4" d="M1072.9,405.9c0.5-0.9,1.1-1.7,1.6-2.5c0.4,0.2,0.8,0.4,1.2,0.6l-1.3,2C1073.9,406,1073.4,405.9,1072.9,405.9z"
	/>
<path class="st18" d="M1072.8,589l-3-1.7C1072.4,585.6,1072.4,585.6,1072.8,589z"/>
<path class="st18" d="M1061.6,583.3l-4.7-1.6L1061.6,583.3z"/>
<path class="st18" d="M1057,581.7l-1.7-1.4L1057,581.7z"/>
<path class="st18" d="M1063.3,584.6l-1.7-1.4L1063.3,584.6z"/>
<path class="st18" d="M1139.4,633.9c4.4-1.3,9.1-2.1,12.5-5.4c0,1.4,0.1,2.7,0.1,4.1c-4.7,1.7-9.2,4.4-14.7,3.1L1139.4,633.9z"/>
<path class="st5" d="M358.9,519.2l1-7.5L358.9,519.2z"/>
<path class="st5" d="M359.9,510.7c0-0.6,0.1-1.2,0.1-1.8C359.9,509.5,359.9,510.1,359.9,510.7z"/>
<path class="st15" d="M320.5,606.2c-0.5-5.6-1.1-11.3-1.5-16.9c-0.2-3.5,0.6-7.1-0.3-10.4c-1-3.6,0.1-8.3-4.6-10.6l4.8-4
	c1.2,6.5,2.5,13,3.5,19.5c0.1,2,0.1,4-0.2,6c0,2.2-0.1,4.3,0,6.4c0.4,9.3,0.8,18.5,1.1,27.8c0,0.3-0.6,0.7-0.9,1.1
	c-0.2-1.6,0.2-3.8-0.7-4.8c-3.1-3.2-3.4-5.8-0.1-9.2C322.4,610.5,320.9,607.9,320.5,606.2z"/>
<path class="st12" d="M299.8,638.2c0-0.2,0-0.5,0-0.7c0-2.6-0.6-5.4,0.2-7.8c0.6-2,2.8-3.6,4.3-5.4c1.7,1.3,3.4,2.5,5.1,3.8
	c-8.1,1.4-8.2,1.5-6.7,8.6c0,0.7-0.2,1.4-0.5,2L299.8,638.2z"/>
<path class="st16" d="M268.1,548.1c1.4-0.4,2.8-1.2,4.2-1.3c8.1-0.2,16.3-0.1,24.4-0.2c-1.6,0.5-3.1,1.4-4.7,1.4
	C284.1,548.2,276.1,548.2,268.1,548.1z"/>
<path class="st18" d="M260.4,626.7l-0.7-5.4l3.8,2.5l-1.8,2.9L260.4,626.7z"/>
<path class="st5" d="M307.4,545l6.8-1.1C312.4,546.6,309.7,545,307.4,545z"/>
<path class="st14" d="M1014.6,559.7l-3.7,0.2c-1-0.3-2-0.6-2.9-1c-4.7-2.1-9.3-5.8-14-5.8c-4.7,0-9.3,3.7-14,5.7l-0.6-0.5l1.6-6.6
	c2.8-0.1,5.3,0.4,6.9-0.5c4.8-2.5,8.8-1.1,12.8,1.2c3.7,2.1,7.2,4.7,11.9,4.4l0.7,0.1L1014.6,559.7z"/>
<path class="st18" d="M1013.4,557l-0.7-0.1c0-6.2,0-12.5,0-18.7c0-5.4,0-10.7,0.1-16.1c0.4,0.3,1,0.7,1,1
	C1013.7,534.4,1013.6,545.7,1013.4,557z"/>
<path class="st14" d="M979.2,559.8h-1.3l1.6-1.5l0.6,0.5C979.8,559.3,979.5,559.6,979.2,559.8z"/>
<path class="st12" d="M1031.8,419.1c-0.9,4.1-5.5,5-8.4,6.7c-16.8,9.9-33.9,19.3-50.9,28.9c-4.8,2.7-9.6,5.6-14.4,8.4
	c-0.8,0.5-2.6,1-2.8,0.8c-2.4-2.9-7.8-1.4-9.3-5.4l0.5-0.4l9.8,2.3c13.3-7.7,27.5-16.1,41.9-24.2c10.9-6.1,22.2-11.6,33.3-17.4
	L1031.8,419.1z"/>
<path class="st12" d="M946,458.4c-9.7-3.6-18.8-8.5-26.9-14.5l0.5-0.4c2.9,1,5.8,1.9,8.6,3c2.1,0.8,3.9,2.6,6,2.9
	c5.9,0.9,8.8,5,12.3,8.6L946,458.4z"/>
<path class="st12" d="M919,443.9c-7.5-2.9-14.9-6.1-20.6-11.6l0.4-0.4c7.4,1.8,13.4,6.1,19.8,9.6c0.5,0.3,0.6,1.3,0.8,2L919,443.9z"
	/>
<path class="st16" d="M1000.1,106.4c-2.9,5-2.8,5.4,1.3,7.9c0.9,0.6,1.4,1.9,2.4,3.6H998l-2.4-1l1.3-14.5
	C998,103.8,999,105.1,1000.1,106.4z"/>
<path class="st6" d="M313.5,243.2c1.8,1.3,3.9,2.4,5.2,4.1c5.1,6.9,11.8,11.2,21,12c4.9,0.4,9.7,1.3,15.7,2.2l-6.7,2.3
	c-2.7,0.9-5.3,2-8,2.8c-8,2.4-12.5,7.5-13.5,15.1c-1.2,10.4-2.4,20.8-3.6,31.2L322,313c-12.1-2.8-12.1-2.8-11.1-14.1
	c0.1-0.7,0.1-1.4,0.2-2.1c0.3-6.2,0.6-12.5,0.9-18.7c-0.6-2.5-1.3-5-2.1-7.4c-2.5-6.2-4.8-12.3-0.7-18.8
	C310.8,249.1,312.2,246.2,313.5,243.2z"/>
<path class="st16" d="M309.6,278.1c-1.8-4.7-3.6-9.3-5.8-14.9c-5.8,9.6-11,18.4-16.4,27.2c-3,4.9-2.2,9.2,1.5,13.3
	c5.8,6.5,11.6,13,17.4,19.5l-2.6,1.3c-5.7-6.3-11.4-12.5-16.9-18.9c-4.7-5.6-5.8-11.4-1.4-17.9c5.6-8.3,10.8-17,15.5-25.8
	c3.3-6.2,5.5-12.9,8.4-19.3c0.4-0.9,1.7-1.4,2.6-2l1.7,2.6c-1.3,3-2.7,5.9-4.3,8.8c-4.1,6.5-1.8,12.6,0.7,18.8
	c0.9,2.4,1.6,4.9,2.1,7.4L309.6,278.1z"/>
<path class="st14" d="M309.6,278.1h2.5c-0.3,6.2-0.6,12.5-0.9,18.7c0,0.7-0.1,1.4-0.2,2.1c-1.1,11.2-1.1,11.2,11.1,14.1
	c-1,1.2-1.8,2.7-3.2,3.5c-3,1.9-6.2,3.4-9.3,5.1c1.2-4.4,1.4-8.3-1.1-12.8c-1.7-3.1-0.6-7.5-0.4-11.3
	C308.4,291,309.1,284.6,309.6,278.1z"/>
<path class="st15" d="M574,313l4.7-1.5L574,313z"/>
<path class="st15" d="M325.1,154.7c-0.5,0.5-0.9,1-1.4,1.5C324.2,155.7,324.6,155.2,325.1,154.7z"/>
<path class="st18" d="M1109.2,745.7c1.9-8.2,3.5-16.4,5.8-24.5c4.4-15.4,2.6-30.5-2.4-45.4c-2.9-8.5-8.9-12.4-18.4-13.2
	c-17.1-1.5-21.7,8.5-24.5,20.6c-0.2,1.5-0.3,2.9-0.2,4.4c-0.5,14-0.7,27.9-1.8,41.9c-0.7,9.9-2.7,19.8-4.1,29.7V746l-3.7-0.4
	c1.8-2,3.5-3.7,3.6-6.8c0.4-8.2,1.6-16.3,2.2-24.4c0.2-3.1-0.4-6.2-0.7-9.3l0.4-2.7c0.4,0,0.7-0.1,1-0.2c0.1,2.1,0.3,4.2,0.4,6.3
	c0.9-5.4,1.2-10.9,1-16.4c-0.2-1.5-0.7-3-1.3-4.4c-0.9-10.9,4.1-19.3,12.8-26.1l3-1.5c8.4-5.6,16.9-11.1,25.2-16.9
	c2-1.4,3.1-3.7,4.8-5.5c1.5-1.5,3.1-2.9,4.7-4.3v0.5l3.4,1.6c-2.4,1-4.5,2.7-6,4.7c-3.6,4.3-8.7,7.5-13.4,11c-2,1.5-4.5,2.6-6.4,4.1
	c-1,0.8-1.3,2.3-2.1,3.8c2.7,0.4,5.4,1,8.1,1.7c9.1,2.8,14.1,8.9,16.1,17.2s3.3,16.4,4.6,24.6c0.4,2.5-0.5,5.2-1.1,7.7
	c-3.1,12.3-6.3,24.6-9.5,36.8L1109.2,745.7z"/>
<path class="st19" d="M1133.1,330.3c-0.1,0.7-0.2,1.4-0.5,2.8l-4.3-2.3l-3.2,2.3l-4.4-3.7l1.3-4.8
	C1127.3,324,1129.4,328.4,1133.1,330.3z"/>
<path class="st19" d="M1117.3,321.6c-4.3,0.1-8.9,0.9-11.7-3.2c-0.8-1.1-0.7-2.6-1.1-4L1117.3,321.6z"/>
<path class="st19" d="M1122.1,324.5c-2.3,0.3-3.4-0.7-3.2-2.8C1121,321.6,1122.1,322.5,1122.1,324.5z"/>
<path class="st16" d="M1187.3,664.4c0,10.4-4.8,19.5-9.2,28.7c-2.5,5.2-4.7,10.6-7.2,15.8c-5,10.4-5.5,21.2-3.7,32.3l-2.4-1.3
	c-2.3-6.6-2.4-13.7-0.4-20.4c2-7.1,4.2-14.4,7.6-21c5.7-11,11-22.1,13.2-34.2L1187.3,664.4z"/>
<path class="st18" d="M222,759.2l-0.7-4.7C221.6,756.1,221.8,757.6,222,759.2z"/>
<path class="st18" d="M220.7,761.5c0.4-0.1,0.9-0.2,1.3-0.4c-0.2,0.5-0.3,0.9-0.5,1.4L220.7,761.5z"/>
<path class="st19" d="M211.2,648.5c-0.6-5,0.8-6.2,8-7.3C218.4,645.3,215.9,647.9,211.2,648.5z"/>
<path class="st19" d="M219.1,641.2l1.8-1.5L219.1,641.2z"/>
<path class="st16" d="M1188.4,642.6c0,4.8,0,9.7,0,14.5c-0.5-1.5-1.1-3-1.6-4.5c0-1.3,0-2.5-0.1-3.8c0-0.8,0-1.6-0.1-2.3l-0.2-3.7
	L1188.4,642.6z"/>
<path class="st16" d="M1120.7,635.5l-3.4-1.6l6.4-0.3l15.8,0.3l-2,1.8l-9.4,0.3l-4.7-0.5H1120.7z"/>
<path class="st15" d="M325.2,185.2c2.5,0.5,5,1.1,7.5,1.5c3.3,0.5,6.6,1,10,1.4c4.1,0.4,6.5-1.1,6.4-5.3c0-1.2,1.2-2.4,1.8-3.5
	c0.5,0,0.9,0,1.3,0.1c1.4,12.1-5.2,12-14.1,11.4c-4.2-0.3-8.4-2.2-12.5-3.6C325.3,187.1,325.4,185.9,325.2,185.2z"/>
<path class="st19" d="M352.2,166.3c-7.9-2.3-13.2-7.2-14.3-13.1l0,0l17.4,7.3C354.3,162.5,353.2,164.4,352.2,166.3z"/>
<path class="st12" d="M374.3,137.4L374.3,137.4z"/>
<path class="st18" d="M848,564.2l-6.3,1L848,564.2z"/>
<path class="st3" d="M263.2,1042.1c3.8-8,7.7-16,11.3-24c4.5-10.1,9-20.3,12.9-30.6c3.4-8.9,7.3-17.8,7.8-27.5c0-0.8,1-1.5,1.5-2.2
	c0,31,0,62,0,92.9c-1.6,5.5-6.7,9.5-12.8,10.1c-6.1,0.9-12.4,1.1-18.6,1.6C264.6,1055.6,263.9,1048.8,263.2,1042.1z"/>
<path class="st3" d="M266.5,1069.7l-1.1-4.6L266.5,1069.7z"/>
<path class="st18" d="M1186.8,652.5c0.5,1.5,1.1,3,1.6,4.5c-0.4,2.5-0.8,4.9-1.1,7.4l-2-0.1L1186.8,652.5z"/>
<path class="st18" d="M1123.3,635.5l4.7,0.5L1123.3,635.5z"/>
<path class="st18" d="M1186.6,646.4c0,0.8,0,1.6,0.1,2.3C1186.7,648,1186.7,647.2,1186.6,646.4z"/>
<path class="st14" d="M1022.1,125.3l-9.4-5.2c3.2-3.4,5.8-0.8,8.2,0.1C1022.7,120.8,1022.6,121.1,1022.1,125.3z"/>
<path class="st15" d="M1012.1,145.3c-3.9,2.7-7.8,2.6-11.7,1.5v-1.5H1012.1z"/>
<path class="st17" d="M1037,146.7c0.3,0.2,0.5,0.4,0.7,0.6c0.1,0.2,0,0.4-0.1,0.6c-0.3,0-0.6,0-1,0
	C1036.8,147.5,1036.9,147.2,1037,146.7z"/>
<polygon class="st6" points="357.7,260.3 357.5,259.9 358,259.9 "/>
<path class="st16" d="M357.6,122.8c-5.9,4.9-5.9,4.9-10.3,5C349.3,124.3,352.4,123.2,357.6,122.8z"/>
<path class="st15" d="M369.7,147.5c-2.9,3.7-3.4,3.7-10.6-0.1h10.4L369.7,147.5z"/>
<path class="st19" d="M338,153.3l-3.2-1l0.7-1.2L338,153.3L338,153.3z"/>
<path class="st11" d="M1066.6,702.2c0-4.8,0-9.6,0.1-14.4c0.6,1.4,1.1,2.9,1.3,4.4c0.3,5.5-0.1,11-1,16.4
	C1066.9,706.4,1066.7,704.3,1066.6,702.2z"/>
</svg>
