<svg id="Layer_1" data-name="Layer 1" xmlns="http://www.w3.org/2000/svg" viewBox="0 0 128 128"><defs><style>.cls-1{fill:#5b5be5;stroke-width:0.75px;}.cls-1,.cls-2{stroke:#000;stroke-miterlimit:10;}.cls-2{fill:#f5a3c0;stroke-width:0.76px;}</style></defs><path class="cls-1" d="M23.22,60.88c5.76,1,10.44,3.72,10.44,9.54a10.36,10.36,0,0,1-5.82,9.24C24.72,81.4,21.66,82,17.46,82H2.7V80.32c5.1-.48,5.4-1,5.4-5.76V50.5c0-5-.54-5.4-5.4-5.82V43H18.42c4.5,0,7.32.78,9.24,2.1a7.84,7.84,0,0,1,3.54,6.72C31.2,57.46,26.58,60,23.22,60.88Zm-6.9-.72c6.6,0,9.3-2.64,9.3-7.56,0-4.2-2.58-7.44-8.34-7.44a6.26,6.26,0,0,0-3.36.6c-.48.36-.66,1-.66,2.94V60.16ZM13.26,74.44c0,4.32,1,5.4,5.28,5.4,4.68,0,9.24-2.52,9.24-8.82,0-6.12-4.32-8.76-11.64-8.76H13.26Z"/><path class="cls-1" d="M38.58,82V80.32c4.92-.54,5.4-.78,5.4-5.88V50.62c0-5.16-.48-5.4-5.4-5.94V43H54.66v1.68c-5,.54-5.46.78-5.46,5.94V74.44c0,5.16.48,5.34,5.46,5.88V82Z"/><path class="cls-1" d="M81.9,82V80.32c3.9-.48,4.38-1.08,3.54-3.36s-2-5.34-3.24-9.12h-13c-1,2.7-1.86,5-2.7,7.5-1.32,3.9-.48,4.38,4.44,5V82H57.12V80.32c3.78-.48,4.74-.9,6.84-6.3l12.42-31.5,1.92-.36c3.78,10.26,7.92,21.6,11.7,32,1.92,5.22,2.46,5.7,6.72,6.18V82Zm-6-32c-1.92,5.16-4,10.62-5.76,15.36H81.36Z"/><path class="cls-1" d="M120.9,52.12c-1-4-2.7-7.86-8.34-7.86-4.68,0-6.3,3.42-6.3,6.54,0,4.14,2.64,6.24,7.62,8.82,7.2,3.72,10.32,6.48,10.32,12.18,0,6.3-5.46,11.1-13.2,11.1a25,25,0,0,1-9.18-2,81.87,81.87,0,0,1-1.62-9l1.86-.48c1.2,4,3.84,9.24,10.08,9.24a6.6,6.6,0,0,0,7-6.9c0-4.62-2.46-6.48-7.74-9.36-6.3-3.42-9.84-6.3-9.84-11.88,0-5.34,4.44-10.38,12.36-10.38a38.41,38.41,0,0,1,7.92,1.14c.24,2.16.48,4.56,1,8.46Z"/><polygon class="cls-2" points="62.56 18 70 35.91 58.29 51.37 39.13 48.92 31.69 31.01 43.4 15.55 62.56 18"/></svg>