<svg id="Layer_1" data-name="Layer 1" xmlns="http://www.w3.org/2000/svg" viewBox="0 0 128 39.44"><defs><style>.cls-1{fill:#5b5be5;stroke-width:0.75px;}.cls-1,.cls-2{stroke:#000;stroke-miterlimit:10;}.cls-2{fill:#f5a3c0;stroke-width:0.76px;}</style></defs><path class="cls-1" d="M27.36,16.86c5,.83,9,3.22,9,8.27a9,9,0,0,1-5,8,17.26,17.26,0,0,1-9,2H9.57V33.71c4.42-.42,4.68-.89,4.68-5V7.86c0-4.31-.47-4.68-4.68-5V1.36H23.2c3.9,0,6.34.68,8,1.82A6.81,6.81,0,0,1,34.27,9C34.27,13.9,30.27,16.13,27.36,16.86Zm-6-.62c5.72,0,8.06-2.29,8.06-6.56,0-3.64-2.24-6.44-7.23-6.44a5.35,5.35,0,0,0-2.91.52c-.42.31-.58.88-.58,2.54v9.94ZM18.72,28.61c0,3.75.89,4.68,4.58,4.68,4.06,0,8-2.18,8-7.64,0-5.31-3.75-7.59-10.09-7.59h-2.5Z"/><path class="cls-2" d="M40.67,35.16V33.71c4.26-.47,4.68-.68,4.68-5.1V8c0-4.47-.42-4.68-4.68-5.15V1.36H54.6V2.82c-4.31.47-4.73.68-4.73,5.15V28.61c0,4.47.42,4.63,4.73,5.1v1.45Z"/><path class="cls-1" d="M78.21,35.16V33.71c3.38-.42,3.8-.94,3.07-2.91s-1.72-4.63-2.81-7.91H67.24c-.83,2.34-1.61,4.37-2.34,6.5-1.15,3.38-.42,3.8,3.85,4.32v1.45h-12V33.71c3.28-.42,4.11-.78,5.93-5.46L73.43,1,75.09.64C78.37,9.53,82,19.36,85.23,28.35c1.67,4.53,2.13,4.94,5.83,5.36v1.45ZM73,7.45c-1.66,4.47-3.43,9.2-5,13.31h9.72Z"/><path class="cls-1" d="M112,9.27c-.88-3.44-2.34-6.81-7.23-6.81-4,0-5.46,3-5.46,5.66,0,3.59,2.29,5.41,6.61,7.65,6.24,3.22,8.94,5.61,8.94,10.55,0,5.46-4.73,9.62-11.44,9.62a21.8,21.8,0,0,1-8-1.71,71.68,71.68,0,0,1-1.4-7.8L95.68,26c1,3.49,3.33,8,8.74,8a5.72,5.72,0,0,0,6-6c0-4-2.13-5.62-6.71-8.11-5.46-3-8.53-5.46-8.53-10.3,0-4.63,3.85-9,10.72-9a34,34,0,0,1,6.86,1c.21,1.88.42,4,.83,7.33Z"/></svg>